<svg width="792" height="275" viewBox="0 0 792 275" fill="none" xmlns="http://www.w3.org/2000/svg">
<path d="M792 0H0V275H792V0Z" fill="url(#paint0_linear_2_195)"/>
<path d="M288.7 136.4C319.462 136.4 344.4 111.462 344.4 80.7C344.4 49.9377 319.462 25 288.7 25C257.938 25 233 49.9377 233 80.7C233 111.462 257.938 136.4 288.7 136.4Z" fill="url(#paint1_radial_2_195)"/>
<path opacity="0.68" d="M48.7652 183C32.0652 179.1 21.3652 162.7 24.5652 146.2C27.7652 129.3 44.5652 117.8 61.7652 121C60.7652 110.1 68.1652 100.2 78.7652 98C89.2652 95.8 99.8652 101.8 103.365 112C102.765 109 100.065 93.8 109.765 79C119.165 64.5 133.665 60.7 136.765 60C138.665 49.7 146.965 41.9 156.765 41C167.965 39.9 178.865 48 181.165 60C197.465 54.1 215.465 59.1 225.765 72C234.465 83 236.265 98.1 230.765 111.5C237.465 100.5 250.265 94.7 262.765 97C275.665 99.4 285.865 109.9 287.765 123C288.365 122.7 301.765 115.4 314.765 123C323.965 128.4 329.165 139.1 327.765 150C332.665 143.3 340.965 141.1 346.765 144C352.665 147 355.165 156.3 353.365 162.8C346.165 188 269.765 191 269.765 191C269.765 191 221.365 193.3 170.765 193C122.965 192.7 99.0652 190.2 88.7652 189C72.2652 187.1 58.4652 184.8 48.7652 183Z" fill="url(#paint2_linear_2_195)"/>
<path opacity="0.82" d="M572.2 100.9C561.3 99 554.4 90.7 556.4 82.5C558.5 74 569.4 68.3 580.7 69.9C580.1 64.5 584.9 59.5 591.8 58.4C598.6 57.3 605.6 60.3 607.9 65.4C607.5 63.9 605.8 56.3 612 48.9C618.1 41.7 627.6 39.8 629.6 39.4C630.8 34.2 636.3 30.4 642.6 29.9C649.9 29.4 657 33.4 658.5 39.4C669.1 36.5 680.9 38.9 687.6 45.4C693.3 50.9 694.5 58.5 690.9 65.1C695.2 59.6 703.6 56.7 711.8 57.9C720.2 59.1 726.8 64.3 728.1 70.9C728.5 70.7 737.2 67.1 745.7 70.9C751.7 73.6 755.1 78.9 754.2 84.4C757.4 81 762.8 79.9 766.6 81.4C770.5 82.9 772.1 87.5 770.9 90.8C766.2 103.4 716.4 104.9 716.4 104.9C716.4 104.9 684.8 106.1 651.8 105.9C620.6 105.7 605 104.5 598.3 103.9C587.5 103 578.5 101.8 572.2 100.9V100.9Z" fill="url(#paint3_linear_2_195)"/>
<path opacity="0.92" d="M618.6 117.6C626 115.9 630.8 108.8 629.4 101.6C628 94.2 620.5 89.3 612.8 90.7C613.2 86 609.9 81.7 605.2 80.7C600.5 79.8 595.8 82.4 594.2 86.8C594.5 85.5 595.7 78.9 591.4 72.5C587.2 66.2 580.7 64.6 579.4 64.2C578.6 59.7 574.8 56.4 570.5 55.9C565.5 55.4 560.6 59 559.6 64.2C552.3 61.6 544.3 63.8 539.7 69.4C535.8 74.2 535 80.8 537.5 86.6C534.5 81.8 528.8 79.3 523.2 80.3C517.4 81.3 512.9 85.9 512 91.6C511.7 91.5 505.8 88.3 500 91.6C495.9 93.9 493.6 98.6 494.2 103.3C492 100.4 488.3 99.4 485.7 100.7C483.1 102 481.9 106 482.8 108.9C486 119.8 520.1 121.1 520.1 121.1C520.1 121.1 541.7 122.1 564.3 122C585.6 121.9 596.3 120.8 600.9 120.3C608.1 119.4 614.2 118.4 618.6 117.6V117.6Z" fill="url(#paint4_linear_2_195)"/>
<defs>
<linearGradient id="paint0_linear_2_195" x1="396" y1="-0.0164717" x2="396" y2="274.982" gradientUnits="userSpaceOnUse">
<stop stop-color="#0088BC"/>
<stop offset="0.864583" stop-color="#9AD0E4"/>
<stop offset="0.9949" stop-color="white"/>
</linearGradient>
<radialGradient id="paint1_radial_2_195" cx="0" cy="0" r="1" gradientUnits="userSpaceOnUse" gradientTransform="translate(288.71 80.69) scale(55.708)">
<stop offset="0.010256" stop-color="#F4F3B0"/>
<stop offset="1" stop-color="#F9ED32"/>
</radialGradient>
<linearGradient id="paint2_linear_2_195" x1="188.965" y1="40.88" x2="188.965" y2="193" gradientUnits="userSpaceOnUse">
<stop stop-color="white"/>
<stop offset="0.9949" stop-color="#DBEFF9"/>
</linearGradient>
<linearGradient id="paint3_linear_2_195" x1="663.58" y1="29.877" x2="663.58" y2="105.94" gradientUnits="userSpaceOnUse">
<stop stop-color="white"/>
<stop offset="0.9949" stop-color="#DBEFF9"/>
</linearGradient>
<linearGradient id="paint4_linear_2_195" x1="556.005" y1="55.877" x2="556.005" y2="121.97" gradientUnits="userSpaceOnUse">
<stop stop-color="white"/>
<stop offset="0.9949" stop-color="#DBEFF9"/>
</linearGradient>
</defs>
</svg>
