<svg width="793" height="275" viewBox="0 0 793 275" fill="none" xmlns="http://www.w3.org/2000/svg">
<path d="M792 0H0V275H792V0Z" fill="url(#paint0_linear_2_194)"/>
<path d="M272.4 63.7C270.4 54 272.6 46 274.4 39.5C276.2 32.9 278.6 27.9 280.1 25C252.8 30.1 233 53.6 233 80C233 110.6 258.1 135.7 288.7 135.7C319.3 135.7 344.4 110.6 344.4 80C338.3 84 325.3 91.3 308.4 90.7C301.3 90.5 290 90.1 281.4 81.7C274.8 75.2 273.1 67.2 272.4 63.7V63.7Z" fill="url(#paint1_radial_2_194)"/>
<g opacity="0.59">
<path opacity="0.59" d="M344.2 21.1545C346.6 21.1545 346.6 18.0594 344.2 18.0594C341.8 18.1408 341.8 21.1545 344.2 21.1545Z" fill="#F1F2F2"/>
<path opacity="0.59" d="M502.2 72.9563C505.4 72.9563 505.4 68.8839 502.2 68.8839C499 68.8839 499 72.9563 502.2 72.9563Z" fill="#F1F2F2"/>
<path opacity="0.59" d="M214.2 45.9141C215.8 45.9141 215.8 43.8779 214.2 43.8779C212.6 43.8779 212.6 45.9141 214.2 45.9141Z" fill="#F1F2F2"/>
<path opacity="0.59" d="M283.2 80.1239C284.8 80.1239 284.8 78.0876 283.2 78.0876C281.6 78.0876 281.6 80.1239 283.2 80.1239Z" fill="#F1F2F2"/>
<path opacity="0.59" d="M442.2 220.216C443.8 220.216 443.8 218.18 442.2 218.18C440.6 218.18 440.6 220.216 442.2 220.216Z" fill="#F1F2F2"/>
<path opacity="0.59" d="M532.2 164.016C533.8 164.016 533.8 161.98 532.2 161.98C530.6 161.98 530.6 164.016 532.2 164.016Z" fill="#F1F2F2"/>
<path opacity="0.59" d="M650.2 233.248C651.8 233.248 651.8 231.212 650.2 231.212C648.6 231.212 648.6 233.248 650.2 233.248Z" fill="#F1F2F2"/>
<path opacity="0.59" d="M755.2 166.46C756.8 166.46 756.8 164.424 755.2 164.424C753.6 164.424 753.6 166.46 755.2 166.46Z" fill="#F1F2F2"/>
<path opacity="0.59" d="M704.2 110.259C705.8 110.259 705.8 108.223 704.2 108.223C702.6 108.223 702.6 110.259 704.2 110.259Z" fill="#F1F2F2"/>
<path opacity="0.59" d="M791.2 19.0362C792.8 19.0362 792.8 17 791.2 17C789.6 17 789.6 19.0362 791.2 19.0362Z" fill="#F1F2F2"/>
<path opacity="0.59" d="M80.2 233.248C81.8 233.248 81.8 231.212 80.2 231.212C78.6 231.212 78.6 233.248 80.2 233.248Z" fill="#F1F2F2"/>
<path opacity="0.59" d="M59.2 120.034C60.8 120.034 60.8 117.998 59.2 117.998C57.6 117.998 57.6 120.034 59.2 120.034Z" fill="#F1F2F2"/>
<path opacity="0.59" d="M148.2 57.317C149.8 57.317 149.8 55.2808 148.2 55.2808C146.6 55.2808 146.6 57.317 148.2 57.317Z" fill="#F1F2F2"/>
<path opacity="0.59" d="M94.9476 39.6344C99.6777 39.6344 99.6777 33.5344 94.9476 33.5344C90.2175 33.695 90.2175 39.6344 94.9476 39.6344Z" fill="#F1F2F2"/>
<path opacity="0.59" d="M119.2 87.9422C121.6 87.9422 121.6 84.8471 119.2 84.8471C116.8 84.9286 116.8 87.9422 119.2 87.9422Z" fill="#F1F2F2"/>
<path opacity="0.59" d="M476.2 62.0603C481.267 62.0603 481.267 55.5262 476.2 55.5262C471.133 55.6982 471.133 62.0603 476.2 62.0603Z" fill="#F1F2F2"/>
<path opacity="0.59" d="M363.2 143.419C366.933 143.419 366.933 138.604 363.2 138.604C359.467 138.731 359.467 143.419 363.2 143.419Z" fill="#F1F2F2"/>
<path opacity="0.59" d="M276.7 185.003C281.1 185.003 281.1 179.329 276.7 179.329C272.3 179.478 272.3 185.003 276.7 185.003Z" fill="#F1F2F2"/>
</g>
<path opacity="0.68" d="M48.7652 183C32.0652 179.1 21.3652 162.7 24.5652 146.2C27.7652 129.3 44.5652 117.8 61.7652 121C60.7652 110.1 68.1652 100.2 78.7652 97.9998C89.2652 95.7998 99.8652 101.8 103.365 112C102.765 109 100.065 93.7998 109.765 78.9998C119.165 64.4998 133.665 60.6998 136.765 59.9998C138.665 49.6998 146.965 41.8998 156.765 40.9998C167.965 39.8998 178.865 47.9998 181.165 59.9998C197.465 54.0998 215.465 59.0998 225.765 71.9998C234.465 82.9998 236.265 98.0998 230.765 111.5C237.465 100.5 250.265 94.6998 262.765 96.9998C275.665 99.3998 285.865 109.9 287.765 123C288.365 122.7 301.765 115.4 314.765 123C323.965 128.4 329.165 139.1 327.765 150C332.665 143.3 340.965 141.1 346.765 144C352.665 147 355.165 156.3 353.365 162.8C346.165 188 269.765 191 269.765 191C269.765 191 221.365 193.3 170.765 193C122.965 192.7 99.0652 190.2 88.7652 189C72.2652 187.1 58.4652 184.8 48.7652 183Z" fill="url(#paint2_linear_2_194)"/>
<path opacity="0.82" d="M572.2 101C561.3 99.1 554.4 90.8 556.4 82.6C558.5 74.1 569.4 68.4 580.7 70C580.1 64.6 584.9 59.6 591.8 58.5C598.6 57.4 605.6 60.4 607.9 65.5C607.5 64 605.8 56.4 612 49C618.1 41.8 627.6 39.9 629.6 39.5C630.8 34.3 636.3 30.5 642.6 30C649.9 29.5 657 33.5 658.5 39.5C669.1 36.6 680.9 39 687.6 45.5C693.3 51 694.5 58.6 690.9 65.2C695.2 59.7 703.6 56.8 711.8 58C720.2 59.2 726.8 64.4 728.1 71C728.5 70.8 737.2 67.2 745.7 71C751.7 73.7 755.1 79 754.2 84.5C757.4 81.1 762.8 80 766.6 81.5C770.5 83 772.1 87.6 770.9 90.9C766.2 103.5 716.4 105 716.4 105C716.4 105 684.8 106.2 651.8 106C620.6 105.8 605 104.6 598.3 104C587.5 103 578.5 101.9 572.2 101V101Z" fill="url(#paint3_linear_2_194)"/>
<path opacity="0.92" d="M618.6 117.6C626 115.9 630.8 108.8 629.4 101.6C628 94.2 620.5 89.3 612.8 90.7C613.2 86 609.9 81.7 605.2 80.7C600.5 79.8 595.8 82.4 594.2 86.8C594.5 85.5 595.7 78.9 591.4 72.5C587.2 66.2 580.7 64.6 579.4 64.2C578.6 59.7 574.8 56.4 570.5 55.9C565.5 55.4 560.6 59 559.6 64.2C552.3 61.6 544.3 63.8 539.7 69.4C535.8 74.2 535 80.8 537.5 86.6C534.5 81.8 528.8 79.3 523.2 80.3C517.4 81.3 512.9 85.9 512 91.6C511.7 91.5 505.8 88.3 500 91.6C495.9 93.9 493.6 98.6 494.2 103.3C492 100.4 488.3 99.4 485.7 100.7C483.1 102 481.9 106 482.8 108.9C486 119.8 520.1 121.1 520.1 121.1C520.1 121.1 541.7 122.1 564.3 122C585.6 121.9 596.3 120.8 600.9 120.3C608.1 119.4 614.2 118.4 618.6 117.6V117.6Z" fill="url(#paint4_linear_2_194)"/>
<defs>
<linearGradient id="paint0_linear_2_194" x1="396" y1="0" x2="396" y2="275" gradientUnits="userSpaceOnUse">
<stop offset="0.00623" stop-color="#1F000A"/>
<stop offset="0.3144" stop-color="#300454"/>
<stop offset="1" stop-color="#0066AB"/>
</linearGradient>
<radialGradient id="paint1_radial_2_194" cx="0" cy="0" r="1" gradientUnits="userSpaceOnUse" gradientTransform="translate(288.66 80.35) scale(55.541)">
<stop stop-color="#F1F7E6"/>
<stop offset="0.9897" stop-color="#A3ACB1"/>
</radialGradient>
<linearGradient id="paint2_linear_2_194" x1="188.965" y1="40.8998" x2="188.965" y2="193.03" gradientUnits="userSpaceOnUse">
<stop stop-color="#4787A1"/>
<stop offset="0.9949" stop-color="#2F1753"/>
</linearGradient>
<linearGradient id="paint3_linear_2_194" x1="663.58" y1="29.904" x2="663.58" y2="105.97" gradientUnits="userSpaceOnUse">
<stop stop-color="#4787A1"/>
<stop offset="0.9949" stop-color="#2F1753"/>
</linearGradient>
<linearGradient id="paint4_linear_2_194" x1="555.929" y1="55.904" x2="555.929" y2="122" gradientUnits="userSpaceOnUse">
<stop stop-color="#4787A1"/>
<stop offset="0.9949" stop-color="#2F1753"/>
</linearGradient>
</defs>
</svg>
