<svg width="792" height="210" viewBox="0 0 792 210" fill="none" xmlns="http://www.w3.org/2000/svg">
<path d="M792 0H0V210H792V0Z" fill="url(#paint0_linear_2_190)"/>
<path d="M272.4 63.7C270.4 54 272.6 46 274.4 39.5C276.2 32.9 278.6 27.9 280.1 25C252.8 30.1 233 53.6 233 80C233 110.6 258.1 135.7 288.7 135.7C319.3 135.7 344.4 110.6 344.4 80C338.3 84 325.3 91.3 308.4 90.7C301.3 90.5 290 90.1 281.4 81.7C274.8 75.2 273.1 67.2 272.4 63.7V63.7Z" fill="url(#paint1_radial_2_190)"/>
<g opacity="0.59">
<path opacity="0.59" d="M323.2 32.944C325.6 32.944 325.6 30.7509 323.2 30.7509C320.8 30.8087 320.8 32.944 323.2 32.944Z" fill="#F1F2F2"/>
<path opacity="0.59" d="M481.2 69.6485C484.4 69.6485 484.4 66.7629 481.2 66.7629C478 66.7629 478 69.6485 481.2 69.6485Z" fill="#F1F2F2"/>
<path opacity="0.59" d="M193.2 50.4872C194.8 50.4872 194.8 49.0444 193.2 49.0444C191.6 49.0444 191.6 50.4872 193.2 50.4872Z" fill="#F1F2F2"/>
<path opacity="0.59" d="M262.2 74.7271C263.8 74.7271 263.8 73.2843 262.2 73.2843C260.6 73.2843 260.6 74.7271 262.2 74.7271Z" fill="#F1F2F2"/>
<path opacity="0.59" d="M421.2 173.991C422.8 173.991 422.8 172.549 421.2 172.549C419.6 172.549 419.6 173.991 421.2 173.991Z" fill="#F1F2F2"/>
<path opacity="0.59" d="M511.2 134.17C512.8 134.17 512.8 132.727 511.2 132.727C509.6 132.727 509.6 134.17 511.2 134.17Z" fill="#F1F2F2"/>
<path opacity="0.59" d="M629.2 183.226C630.8 183.226 630.8 181.783 629.2 181.783C627.6 181.783 627.6 183.226 629.2 183.226Z" fill="#F1F2F2"/>
<path opacity="0.59" d="M734.2 135.902C735.8 135.902 735.8 134.459 734.2 134.459C732.6 134.459 732.6 135.902 734.2 135.902Z" fill="#F1F2F2"/>
<path opacity="0.59" d="M683.2 96.0798C684.8 96.0798 684.8 94.637 683.2 94.637C681.6 94.637 681.6 96.0798 683.2 96.0798Z" fill="#F1F2F2"/>
<path opacity="0.59" d="M770.2 31.4428C771.8 31.4428 771.8 30 770.2 30C768.6 30 768.6 31.4428 770.2 31.4428Z" fill="#F1F2F2"/>
<path opacity="0.59" d="M59.2 183.226C60.8 183.226 60.8 181.783 59.2 181.783C57.6 181.783 57.6 183.226 59.2 183.226Z" fill="#F1F2F2"/>
<path opacity="0.59" d="M38.2 103.006C39.8 103.006 39.8 101.563 38.2 101.563C36.6 101.563 36.6 103.006 38.2 103.006Z" fill="#F1F2F2"/>
<path opacity="0.59" d="M127.2 58.5671C128.8 58.5671 128.8 57.1243 127.2 57.1243C125.6 57.1243 125.6 58.5671 127.2 58.5671Z" fill="#F1F2F2"/>
<path opacity="0.59" d="M72.2 43.9088C74.6 43.9088 74.6 41.7157 72.2 41.7157C69.8 41.7734 69.8 43.9088 72.2 43.9088Z" fill="#F1F2F2"/>
<path opacity="0.59" d="M98.2 80.2668C100.6 80.2668 100.6 78.0737 98.2 78.0737C95.8 78.1314 95.8 80.2668 98.2 80.2668Z" fill="#F1F2F2"/>
<path opacity="0.59" d="M453.2 59.4916C455.6 59.4916 455.6 57.2986 453.2 57.2986C450.8 57.3563 450.8 59.4916 453.2 59.4916Z" fill="#F1F2F2"/>
<path opacity="0.59" d="M341.2 118.358C343.6 118.358 343.6 116.165 341.2 116.165C338.8 116.222 338.8 118.358 341.2 118.358Z" fill="#F1F2F2"/>
<path opacity="0.59" d="M159.2 198C161.6 198 161.6 195.807 159.2 195.807C156.8 195.865 156.8 198 159.2 198Z" fill="#F1F2F2"/>
<path opacity="0.59" d="M254.2 147.213C256.6 147.213 256.6 145.02 254.2 145.02C251.8 145.078 251.8 147.213 254.2 147.213Z" fill="#F1F2F2"/>
</g>
<path opacity="0.68" d="M48.7652 183C32.0652 179.1 21.3652 162.7 24.5652 146.2C27.7652 129.3 44.5652 117.8 61.7652 121C60.7652 110.1 68.1652 100.2 78.7652 97.9998C89.2652 95.7998 99.8652 101.8 103.365 112C102.765 109 100.065 93.7998 109.765 78.9998C119.165 64.4998 133.665 60.6998 136.765 59.9998C138.665 49.6998 146.965 41.8998 156.765 40.9998C167.965 39.8998 178.865 47.9998 181.165 59.9998C197.465 54.0998 215.465 59.0998 225.765 71.9998C234.465 82.9998 236.265 98.0998 230.765 111.5C237.465 100.5 250.265 94.6998 262.765 96.9998C275.665 99.3998 285.865 109.9 287.765 123C288.365 122.7 301.765 115.4 314.765 123C323.965 128.4 329.165 139.1 327.765 150C332.665 143.3 340.965 141.1 346.765 144C352.665 147 355.165 156.3 353.365 162.8C346.165 188 269.765 191 269.765 191C269.765 191 221.365 193.3 170.765 193C122.965 192.7 99.0652 190.2 88.7652 189C72.2652 187.1 58.4652 184.8 48.7652 183Z" fill="url(#paint2_linear_2_190)"/>
<path opacity="0.82" d="M572.2 101C561.3 99.1 554.4 90.8 556.4 82.6C558.5 74.1 569.4 68.4 580.7 70C580.1 64.6 584.9 59.6 591.8 58.5C598.6 57.4 605.6 60.4 607.9 65.5C607.5 64 605.8 56.4 612 49C618.1 41.8 627.6 39.9 629.6 39.5C630.8 34.3 636.3 30.5 642.6 30C649.9 29.5 657 33.5 658.5 39.5C669.1 36.6 680.9 39 687.6 45.5C693.3 51 694.5 58.6 690.9 65.2C695.2 59.7 703.6 56.8 711.8 58C720.2 59.2 726.8 64.4 728.1 71C728.5 70.8 737.2 67.2 745.7 71C751.7 73.7 755.1 79 754.2 84.5C757.4 81.1 762.8 80 766.6 81.5C770.5 83 772.1 87.6 770.9 90.9C766.2 103.5 716.4 105 716.4 105C716.4 105 684.8 106.2 651.8 106C620.6 105.8 605 104.6 598.3 104C587.5 103 578.5 101.9 572.2 101V101Z" fill="url(#paint3_linear_2_190)"/>
<path opacity="0.92" d="M618.6 117.6C626 115.9 630.8 108.8 629.4 101.6C628 94.2 620.5 89.3 612.8 90.7C613.2 86 609.9 81.7 605.2 80.7C600.5 79.8 595.8 82.4 594.2 86.8C594.5 85.5 595.7 78.9 591.4 72.5C587.2 66.2 580.7 64.6 579.4 64.2C578.6 59.7 574.8 56.4 570.5 55.9C565.5 55.4 560.6 59 559.6 64.2C552.3 61.6 544.3 63.8 539.7 69.4C535.8 74.2 535 80.8 537.5 86.6C534.5 81.8 528.8 79.3 523.2 80.3C517.4 81.3 512.9 85.9 512 91.6C511.7 91.5 505.8 88.3 500 91.6C495.9 93.9 493.6 98.6 494.2 103.3C492 100.4 488.3 99.4 485.7 100.7C483.1 102 481.9 106 482.8 108.9C486 119.8 520.1 121.1 520.1 121.1C520.1 121.1 541.7 122.1 564.3 122C585.6 121.9 596.3 120.8 600.9 120.3C608.1 119.4 614.2 118.4 618.6 117.6V117.6Z" fill="url(#paint4_linear_2_190)"/>
<defs>
<linearGradient id="paint0_linear_2_190" x1="396" y1="0" x2="396" y2="210" gradientUnits="userSpaceOnUse">
<stop offset="0.00623" stop-color="#1F000A"/>
<stop offset="0.3144" stop-color="#300454"/>
<stop offset="0.9927" stop-color="#323099"/>
</linearGradient>
<radialGradient id="paint1_radial_2_190" cx="0" cy="0" r="1" gradientUnits="userSpaceOnUse" gradientTransform="translate(288.66 80.35) scale(55.541)">
<stop stop-color="#F1F7E6"/>
<stop offset="0.9897" stop-color="#A3ACB1"/>
</radialGradient>
<linearGradient id="paint2_linear_2_190" x1="188.965" y1="40.8998" x2="188.965" y2="193.03" gradientUnits="userSpaceOnUse">
<stop stop-color="#4787A1"/>
<stop offset="0.9949" stop-color="#2F1753"/>
</linearGradient>
<linearGradient id="paint3_linear_2_190" x1="663.58" y1="29.904" x2="663.58" y2="105.97" gradientUnits="userSpaceOnUse">
<stop stop-color="#4787A1"/>
<stop offset="0.9949" stop-color="#2F1753"/>
</linearGradient>
<linearGradient id="paint4_linear_2_190" x1="555.929" y1="55.904" x2="555.929" y2="122" gradientUnits="userSpaceOnUse">
<stop stop-color="#4787A1"/>
<stop offset="0.9949" stop-color="#2F1753"/>
</linearGradient>
</defs>
</svg>
