<svg width="128" height="128" viewBox="0 0 128 128" fill="none" xmlns="http://www.w3.org/2000/svg">
<circle cx="63.5" cy="64.5" r="54.5" fill="#5A6D9F" stroke="currentColor" stroke-width="2"/>
<g filter="url(#filter0_f_7_44)">
<ellipse cx="64" cy="90.5" rx="48" ry="1.5" fill="#514D4D"/>
</g>
<rect x="59" y="29" width="29" height="61" rx="1" fill="#AA00B9" stroke="black" stroke-width="2"/>
<rect x="75" y="51" width="8" height="5" rx="1" fill="#ADEBFF"/>
<rect x="75" y="61" width="8" height="5" rx="1" fill="#ADEBFF"/>
<rect x="75" y="71" width="8" height="5" rx="1" fill="#ADEBFF"/>
<rect x="75" y="81" width="8" height="5" rx="1" fill="#ADEBFF"/>
<rect x="65" y="35" width="19" height="12" rx="1" fill="#ADEBFF"/>
<path d="M71.989 40.661H71.058V40.304C71.058 40.2667 71.044 40.234 71.016 40.206C70.9926 40.178 70.9623 40.164 70.925 40.164H70.54C70.5026 40.164 70.47 40.178 70.442 40.206C70.4186 40.234 70.407 40.2667 70.407 40.304V41.109C70.407 41.1463 70.4186 41.179 70.442 41.207C70.47 41.235 70.5026 41.249 70.54 41.249H71.17C71.7486 41.2583 72.038 41.5663 72.038 42.173V43.146C72.038 43.762 71.7486 44.07 71.17 44.07H70.344C69.7653 44.07 69.476 43.762 69.476 43.146V42.677H70.407V43.181C70.407 43.2183 70.4186 43.251 70.442 43.279C70.47 43.307 70.5026 43.321 70.54 43.321H70.974C71.0113 43.321 71.0416 43.307 71.065 43.279C71.093 43.251 71.107 43.2183 71.107 43.181V42.292C71.107 42.2547 71.093 42.222 71.065 42.194C71.0416 42.166 71.0113 42.152 70.974 42.152H70.344C69.7653 42.152 69.476 41.844 69.476 41.228V40.325C69.476 39.709 69.7653 39.401 70.344 39.401H71.121C71.6996 39.401 71.989 39.709 71.989 40.325V40.661ZM75.195 40.661H74.264V40.304C74.264 40.2667 74.25 40.234 74.222 40.206C74.1987 40.178 74.1684 40.164 74.131 40.164H73.746C73.7087 40.164 73.676 40.178 73.648 40.206C73.6247 40.234 73.613 40.2667 73.613 40.304V41.109C73.613 41.1463 73.6247 41.179 73.648 41.207C73.676 41.235 73.7087 41.249 73.746 41.249H74.376C74.9547 41.2583 75.244 41.5663 75.244 42.173V43.146C75.244 43.762 74.9547 44.07 74.376 44.07H73.55C72.9714 44.07 72.682 43.762 72.682 43.146V42.677H73.613V43.181C73.613 43.2183 73.6247 43.251 73.648 43.279C73.676 43.307 73.7087 43.321 73.746 43.321H74.18C74.2174 43.321 74.2477 43.307 74.271 43.279C74.299 43.251 74.313 43.2183 74.313 43.181V42.292C74.313 42.2547 74.299 42.222 74.271 42.194C74.2477 42.166 74.2174 42.152 74.18 42.152H73.55C72.9714 42.152 72.682 41.844 72.682 41.228V40.325C72.682 39.709 72.9714 39.401 73.55 39.401H74.327C74.9057 39.401 75.195 39.709 75.195 40.325V40.661ZM78.1001 41.522C78.4034 41.6293 78.5551 41.8767 78.5551 42.264V43.076C78.5551 43.692 78.2658 44 77.6871 44H75.8881V39.471H77.6311C78.2098 39.471 78.4991 39.779 78.4991 40.395V40.808C78.4991 41.1813 78.3661 41.4193 78.1001 41.522ZM77.3861 40.136H76.8681V41.347H77.3861C77.4234 41.347 77.4538 41.333 77.4771 41.305C77.5051 41.277 77.5191 41.2443 77.5191 41.207V40.276C77.5191 40.2387 77.5051 40.206 77.4771 40.178C77.4538 40.15 77.4234 40.136 77.3861 40.136ZM77.5751 43.188V42.173C77.5751 42.1357 77.5611 42.103 77.5331 42.075C77.5098 42.047 77.4794 42.033 77.4421 42.033H76.8681V43.328H77.4421C77.4794 43.328 77.5098 43.314 77.5331 43.286C77.5611 43.258 77.5751 43.2253 77.5751 43.188Z" fill="#4F0000"/>
<rect x="38" y="41" width="23" height="49" rx="1" fill="#0038FF" stroke="black" stroke-width="2"/>
<rect x="42" y="61" width="6" height="4" rx="1" fill="#ADEBFF"/>
<rect x="42" y="68" width="6" height="4" rx="1" fill="#ADEBFF"/>
<rect x="42" y="75" width="6" height="4" rx="1" fill="#ADEBFF"/>
<rect x="42" y="82" width="6" height="4" rx="1" fill="#ADEBFF"/>
<rect x="42" y="47" width="12" height="4" rx="1" fill="#ADEBFF"/>
<rect x="42" y="54" width="6" height="4" rx="1" fill="#ADEBFF"/>
<rect x="52" y="53" width="20" height="37" rx="1" fill="#F80000" stroke="black" stroke-width="2"/>
<rect x="56" y="59" width="4" height="4" rx="1" fill="#ADEBFF"/>
<rect x="56" y="66" width="4" height="4" rx="1" fill="#ADEBFF"/>
<rect x="56" y="73" width="4" height="4" rx="1" fill="#ADEBFF"/>
<rect x="56" y="80" width="4" height="4" rx="1" fill="#ADEBFF"/>
<rect x="64" y="59" width="4" height="4" rx="1" fill="#ADEBFF"/>
<rect x="64" y="66" width="4" height="4" rx="1" fill="#ADEBFF"/>
<rect x="64" y="73" width="4" height="4" rx="1" fill="#ADEBFF"/>
<rect x="64" y="80" width="4" height="4" rx="1" fill="#ADEBFF"/>
<defs>
<filter id="filter0_f_7_44" x="12" y="85" width="104" height="11" filterUnits="userSpaceOnUse" color-interpolation-filters="sRGB">
<feFlood flood-opacity="0" result="BackgroundImageFix"/>
<feBlend mode="normal" in="SourceGraphic" in2="BackgroundImageFix" result="shape"/>
<feGaussianBlur stdDeviation="2" result="effect1_foregroundBlur_7_44"/>
</filter>
</defs>
</svg>
