<?xml version="1.0" encoding="utf-8"?>
<!-- Generator: Adobe Illustrator 16.0.0, SVG Export Plug-In . SVG Version: 6.00 Build 0)  -->
<!DOCTYPE svg PUBLIC "-//W3C//DTD SVG 1.1//EN" "http://www.w3.org/Graphics/SVG/1.1/DTD/svg11.dtd">
<svg version="1.1" id="Layer_1" xmlns="http://www.w3.org/2000/svg" xmlns:xlink="http://www.w3.org/1999/xlink" x="0px" y="0px"
	 width="128px" height="128px" viewBox="0 0 128 128" enable-background="new 0 0 128 128" xml:space="preserve">
<g>
	<g>
		<rect y="122.135" fill="#282D33" width="127.488" height="4"/>
	</g>
	<g>
		<path fill="#282D33" d="M122.617,117.998h-4v-6.064c0-0.568-0.449-1.031-1.002-1.031H74.107c-0.553,0-1.002,0.463-1.002,1.031
			v6.064h-4v-6.064c0-2.775,2.244-5.031,5.002-5.031h43.508c2.758,0,5.002,2.256,5.002,5.031V117.998z"/>
	</g>
	<g>
		<path fill="#282D33" d="M114.115,110.9H77.609c-2.758,0-5.002-2.258-5.002-5.033v-4.549c0-2.775,2.244-5.033,5.002-5.033h36.506
			c2.757,0,5,2.258,5,5.033v4.549C119.115,108.643,116.872,110.9,114.115,110.9z M77.609,100.285c-0.553,0-1.002,0.463-1.002,1.033
			v4.549c0,0.57,0.449,1.033,1.002,1.033h36.506c0.552,0,1-0.463,1-1.033v-4.549c0-0.57-0.448-1.033-1-1.033H77.609z"/>
	</g>
	<g>
		<g>
			<g>
				<path fill="#282D33" d="M90.24,74.35c-1.243,0-2.41-0.488-3.287-1.375l-5.907-5.969c-1.796-1.814-1.796-4.769,0-6.584
					L105.607,35.6c0.874-0.885,2.041-1.374,3.284-1.374s2.41,0.488,3.287,1.374l5.908,5.972c1.793,1.817,1.792,4.769,0.001,6.582
					L93.527,72.975C92.649,73.861,91.482,74.35,90.24,74.35z M108.892,38.226c-0.116,0-0.287,0.032-0.438,0.186L83.89,63.234
					c-0.262,0.264-0.262,0.694,0,0.958l5.907,5.968c0.153,0.156,0.326,0.189,0.443,0.189s0.29-0.033,0.443-0.189l24.56-24.818
					c0.256-0.259,0.255-0.698-0.002-0.958l-5.906-5.97C109.182,38.258,109.01,38.226,108.892,38.226z"/>
			</g>
			<g>
				<path fill="#282D33" d="M58.218,41.988c-1.242,0-2.409-0.487-3.286-1.373l-5.908-5.97c-1.796-1.818-1.796-4.772,0-6.586
					L73.582,3.24c0.877-0.886,2.045-1.374,3.289-1.374s2.412,0.488,3.288,1.375l5.907,5.969c1.795,1.815,1.795,4.768,0,6.583
					L61.504,40.614C60.628,41.5,59.461,41.988,58.218,41.988z M76.871,5.866c-0.119,0-0.292,0.033-0.445,0.188l-24.557,24.82
					c-0.262,0.264-0.261,0.695,0,0.96l5.907,5.969c0.152,0.154,0.325,0.187,0.442,0.187c0.117,0,0.29-0.032,0.443-0.188
					L83.223,12.98c0.261-0.264,0.261-0.693,0-0.957l-5.908-5.97C77.161,5.898,76.989,5.866,76.871,5.866z"/>
			</g>
		</g>
		<g>
			<g>
				
					<rect x="57.061" y="46.113" transform="matrix(0.7034 0.7108 -0.7108 0.7034 56.0492 -38.0827)" fill="#282D33" width="33.184" height="4"/>
			</g>
			<g>
				
					<rect x="76.866" y="26.099" transform="matrix(0.7034 0.7108 -0.7108 0.7034 47.696 -58.0971)" fill="#282D33" width="33.184" height="4"/>
			</g>
		</g>
		<g>
			<path fill="#282D33" d="M27.151,105.459L16.914,95.111l53.026-53.593l10.241,10.349L27.151,105.459z M22.541,95.111l4.61,4.66
				l47.403-47.905l-4.614-4.662L22.541,95.111z"/>
		</g>
		<g>
			<path fill="#282D33" d="M21.253,115.137L7.335,101.07l10.551-10.662l13.916,14.066L21.253,115.137z M12.962,101.07l8.291,8.379
				l4.922-4.975l-8.289-8.379L12.962,101.07z"/>
		</g>
		<g>
			
				<rect x="58.37" y="56.478" transform="matrix(0.7035 0.7107 -0.7107 0.7035 60.354 -27.7182)" fill="#282D33" width="10.057" height="4"/>
		</g>
		<g>
			
				<rect x="50.943" y="63.985" transform="matrix(0.7034 0.7108 -0.7108 0.7034 63.5043 -20.2123)" fill="#282D33" width="10.055" height="4"/>
		</g>
		<g>
			
				<rect x="76.169" y="36.522" transform="matrix(0.7034 0.7108 -0.7108 0.7034 52.0436 -47.6739)" fill="#282D33" width="13.952" height="4"/>
		</g>
	</g>
	<g>
		<g>
			<rect x="116.617" y="75.457" fill="#282D33" width="11.383" height="4"/>
		</g>
		<g>
			<g>
				
					<rect x="117.698" y="60.079" transform="matrix(0.5405 0.8413 -0.8413 0.5405 110.3462 -70.4773)" fill="#282D33" width="4" height="11.419"/>
			</g>
			<g>
				
					<rect x="113.988" y="87.125" transform="matrix(0.8413 0.5406 -0.5406 0.8413 67.1813 -50.5636)" fill="#282D33" width="11.42" height="4"/>
			</g>
		</g>
	</g>
	<g>
		<g>
			<rect x="65.462" y="75.457" fill="#282D33" width="11.382" height="4"/>
		</g>
		<g>
			<g>
				
					<rect x="71.761" y="83.415" transform="matrix(0.5405 0.8413 -0.8413 0.5405 108.8734 -21.1071)" fill="#282D33" width="4" height="11.419"/>
			</g>
		</g>
	</g>
</g>
</svg>
