<?xml version="1.0" encoding="utf-8"?>
<!-- Generator: Adobe Illustrator 16.0.0, SVG Export Plug-In . SVG Version: 6.00 Build 0)  -->
<!DOCTYPE svg PUBLIC "-//W3C//DTD SVG 1.0//EN" "http://www.w3.org/TR/2001/REC-SVG-20010904/DTD/svg10.dtd">
<svg version="1.0" id="Layer_1" xmlns="http://www.w3.org/2000/svg" xmlns:xlink="http://www.w3.org/1999/xlink" x="0px" y="0px"
	 width="100px" height="100px" viewBox="0 0 100 100" enable-background="new 0 0 100 100" xml:space="preserve">
<path fill="#ED1C24" d="M90,56.67H78.012l8.891-13.332H90v-6.669h-6.667L70,56.67l-20.271,8.682
	c-1.683,0.724-3.062,2.82-3.062,4.648v13.338h13.945C61.988,87.215,65.65,90,70,90s8.012-2.785,9.389-6.662H90V76.67H79.389
	C78.008,72.793,74.35,70,70,70s-8.008,2.793-9.389,6.67h-7.278v-5.605l18.034-7.727H90V56.67z"/>
<path fill="#ED1C24" d="M10,56.668l16.308,0.002l-4.446-13.332L10,43.333v-6.664h13.333c1.833,0,3.809,1.424,4.389,3.163
	l5.611,16.838c3.686,0,6.667,2.986,6.667,6.668v20H29.388C28.008,87.211,24.349,90,20,90c-5.524,0-10-4.475-10-10
	c0-5.523,4.476-10,10-10c4.349,0,8.015,2.793,9.388,6.67h3.945V63.338H10V56.668z"/>
<path fill="#FFEBEE" d="M66.667,80c0,1.846,1.49,3.338,3.333,3.338s3.333-1.492,3.333-3.338c0-1.838-1.49-3.33-3.333-3.33
	S66.667,78.162,66.667,80z"/>
<polygon fill="#FFEBEE" points="90,56.67 78.012,56.67 86.902,43.338 90,43.338 "/>
<path fill="#FFEBEE" d="M90,76.67H79.389C78.008,72.793,74.35,70,70,70s-8.008,2.793-9.389,6.67h-7.278v-5.605l18.034-7.727H90
	V76.67z"/>
<path fill="#FFEBEE" d="M10,63.338h23.333V76.67h-3.945C28.015,72.793,24.349,70,20,70c-5.524,0-10,4.477-10,10V63.338z"/>
<polygon fill="#FFEBEE" points="10,43.333 21.862,43.338 26.308,56.67 10,56.668 "/>
<path fill="#FFEBEE" d="M23.333,80c0-1.842-1.49-3.332-3.333-3.332s-3.333,1.49-3.333,3.332c0,1.844,1.49,3.334,3.333,3.334
	S23.333,81.844,23.333,80z"/>
<polygon fill="#ED1C24" points="62.464,41.531 47.715,47.43 50.039,35.801 46.042,38.802 38.142,30.902 40.163,40 33.333,40 
	26.667,10 46.667,30 60,20 56.667,36.668 73.333,30 66.667,50 59.639,50 "/>
</svg>
