<?xml version="1.0" encoding="UTF-8"?>
<!DOCTYPE svg PUBLIC "-//W3C//DTD SVG 1.1//EN" "http://www.w3.org/Graphics/SVG/1.1/DTD/svg11.dtd">
<!-- Creator: CorelDRAW -->
<svg xmlns="http://www.w3.org/2000/svg" xml:space="preserve" width="2048px" height="2048px" style="shape-rendering:geometricPrecision; text-rendering:geometricPrecision; image-rendering:optimizeQuality; fill-rule:evenodd; clip-rule:evenodd"
viewBox="0 0 2048 2048"
 xmlns:xlink="http://www.w3.org/1999/xlink">
 <defs>
  <style type="text/css">
   <![CDATA[
    .fil2 {fill:none}
    .fil5 {fill:#01579B}
    .fil3 {fill:#0277BD}
    .fil6 {fill:#424242}
    .fil8 {fill:#616161}
    .fil1 {fill:#D32F2F}
    .fil4 {fill:#E6E6E6}
    .fil0 {fill:#EF5350}
    .fil7 {fill:#F44336}
   ]]>
  </style>
   <clipPath id="id0">
    <path d="M1024 0c565.539,0 1024,458.461 1024,1024 0,565.539 -458.461,1024 -1024,1024 -565.539,0 -1024,-458.461 -1024,-1024 0,-565.539 458.461,-1024 1024,-1024z"/>
   </clipPath>
 </defs>
 <g id="Layer_x0020_1">
  <metadata id="CorelCorpID_0Corel-Layer"/>
  <path class="fil0" d="M1024 0c565.539,0 1024,458.461 1024,1024 0,565.539 -458.461,1024 -1024,1024 -565.539,0 -1024,-458.461 -1024,-1024 0,-565.539 458.461,-1024 1024,-1024z"/>
  <g style="clip-path:url(#id0)">
   <g id="_341214352">
    <g>
     <polygon id="_3384439441" class="fil1" points="1584,755.666 2719.88,1891.55 2719.88,1914.88 1584,779 "/>
     <polygon id="_338443392" class="fil1" points="1584,779 2719.88,1914.88 2719.88,2404.88 1584,1269 "/>
     <polygon id="_338444400" class="fil1" points="1584,1269 2719.88,2404.88 2719.88,2428.22 1584,1292.33 "/>
     <polygon id="_338444568" class="fil1" points="1584,1292.33 2719.88,2428.22 2696.55,2428.22 1560.67,1292.33 "/>
     <polygon id="_338444496" class="fil1" points="1560.67,1292.33 2696.55,2428.22 1623.22,2428.22 487.334,1292.33 "/>
     <polygon id="_338444592" class="fil1" points="487.334,1292.33 1623.22,2428.22 1599.88,2428.22 464,1292.33 "/>
    </g>
    <polygon id="_341214544" class="fil1" points="487.334,755.666 1560.67,755.666 1584,755.666 1584,779 1584,1269 1584,1292.33 1560.67,1292.33 487.334,1292.33 464,1292.33 464,1269 464,779 464,755.666 "/>
   </g>
  </g>
  <path class="fil2" d="M1024 0c565.539,0 1024,458.461 1024,1024 0,565.539 -458.461,1024 -1024,1024 -565.539,0 -1024,-458.461 -1024,-1024 0,-565.539 458.461,-1024 1024,-1024z"/>
  <polygon class="fil3" points="487.334,755.666 1560.67,755.666 1584,755.666 1584,779 1584,1269 1584,1292.33 1560.67,1292.33 487.334,1292.33 464,1292.33 464,1269 464,779 464,755.666 "/>
  <polygon class="fil4" points="493.166,784.832 493.166,1263.17 1554.84,1263.17 1554.84,784.832 "/>
  <polygon class="fil5" points="580.667,1161.03 814.001,1161.03 814.001,1190.3 580.667,1190.3 "/>
  <path class="fil6" d="M1414.76 1096.23c-1.61457,0 -3.40866,-0.161811 -1.12795,0.323622 0.486615,0.102756 0.849213,0.00354331 1.12795,-0.323622z"/>
  <path class="fil6" d="M1363.07 1098.03c-1.02047,1.06181 -2.66575,2.28662 -1.54843,1.55315 0.454725,-0.298819 0.977954,-0.839764 1.54843,-1.55315z"/>
  <path class="fil7" d="M1256.5 1075.81c-6.41812,0.175984 -11.478,5.52166 -11.302,11.9398 0.174803,6.41812 5.52166,11.478 11.9398,11.302 15.476,-0.434646 12.3,-7.86379 13.7858,-4.38898 1.54488,3.61536 4.03465,9.43702 18.5563,16.4681 21.698,10.5047 30.9945,-2.44725 39.3331,-14.1l0.022441 0.0153543 0.00236221 -0.00354331 0.00472441 0.00354331 0.209055 -0.302362c1.76339,-2.46142 3.41221,-4.74449 4.17638,-5.24528 0.327166,-0.214961 1.32284,3.21969 8.6315,14.3457l2.4815 3.77599c10.0784,15.3449 20.2358,15.75 29.9469,9.36969 6.32126,-4.15158 10.5508,-11.3776 14.3386,-17.85 1.41851,-2.42481 -5.41182,-4.50473 -1.37362,-4.53307 3.22677,-0.022441 6.48071,6.00119 8.78268,10.2661 3.32362,6.15355 5.94567,11.0102 12.7736,12.4618 13.7705,2.92677 21.3402,-17.6811 39.8174,-104.589 1.33465,-6.29174 -2.68583,-12.4748 -8.97757,-13.8083 -6.29174,-1.33465 -12.4748,2.68465 -13.8083,8.97638 -11.3102,53.1945 -9.4878,76.6052 -10.3701,83.954 -5.0126,-9.14528 -12.3083,-20.6185 -28.3087,-20.504 -9.25158,0.0673229 -13.6299,7.54253 -18.5882,16.0181 -1.6063,2.74488 -3.33307,5.6941 -4.82717,7.75867 0.0448819,-0.114567 0.0531496,-0.211417 0.00708662,-0.279921l-2.48032 -3.77717c-17.4579,-26.576 -29.6421,-28.3323 -40.8048,-20.9988 -4.50827,2.95984 -7.39134,6.91182 -10.376,11.0799l-0.22441 0.302362 9.4878 6.79016 -9.47953 -6.74528c-2.92441,4.08662 -6.18426,8.63741 -10.2791,6.65552 -6.6567,-3.22441 -7.02638,-4.08544 -7.25434,-4.62048 -3.99449,-9.33544 -4.54489,-10.6205 -35.8429,-9.73702z"/>
  <polygon class="fil5" points="1230.36,1161.03 1463.69,1161.03 1463.69,1190.3 1230.36,1190.3 "/>
  <polygon class="fil8" points="604.536,974.366 1187.33,974.366 1187.33,1003.64 604.536,1003.64 "/>
  <polygon class="fil5" points="604.536,857.697 1420.67,857.697 1420.67,886.968 604.536,886.968 "/>
 </g>
</svg>
