<?xml version="1.0" encoding="utf-8"?>
<!-- Generator: Adobe Illustrator 16.0.0, SVG Export Plug-In . SVG Version: 6.00 Build 0)  -->
<!DOCTYPE svg PUBLIC "-//W3C//DTD SVG 1.1//EN" "http://www.w3.org/Graphics/SVG/1.1/DTD/svg11.dtd">
<svg version="1.1" xmlns="http://www.w3.org/2000/svg" xmlns:xlink="http://www.w3.org/1999/xlink" x="0px" y="0px" width="64px"
	 height="64px" viewBox="0 0 64 64" enable-background="new 0 0 64 64" xml:space="preserve">
<g id="_x35_0">
</g>
<g id="_x34_9">
</g>
<g id="_x34_8">
</g>
<g id="_x34_7">
</g>
<g id="_x34_6">
</g>
<g id="_x34_5">
</g>
<g id="_x34_4">
</g>
<g id="_x34_3">
</g>
<g id="_x34_2">
</g>
<g id="_x34_1">
</g>
<g id="_x34_0">
</g>
<g id="_x33_9">
</g>
<g id="_x33_8">
</g>
<g id="_x33_7">
</g>
<g id="_x33_6">
</g>
<g id="_x33_5">
</g>
<g id="_x33_4">
</g>
<g id="_x33_3">
</g>
<g id="_x33_2">
</g>
<g id="_x33_1">
</g>
<g id="_x33_0">
	<g>
		<g>
			<path fill="#FFCE54" d="M15.99,35.169h8c0,2.21-1.79,4-4,4S15.99,37.379,15.99,35.169z"/>
		</g>
		<g>
			<path fill="#FFCE54" d="M40.01,35.169h8c0,2.21-1.79,4-4,4S40.01,37.379,40.01,35.169z"/>
		</g>
		<g>
			<path fill="#E6E9ED" d="M33.47,19.669v1.5h-3v-1.5c0-0.83,0.67-1.5,1.5-1.5S33.47,18.839,33.47,19.669z"/>
		</g>
		<g>
			<path fill="#E6E9ED" d="M33.47,21.169H44.48c0.829,0,1.5,0.67,1.5,1.5s-0.671,1.5-1.5,1.5H44.01H33.47h-3H19.99h-0.44h-0.06
				c-0.83,0-1.5-0.67-1.5-1.5s0.67-1.5,1.5-1.5h0.06h10.92H33.47z"/>
		</g>
		<g>
			<rect x="30.47" y="24.169" fill="#E6E9ED" width="3" height="20"/>
		</g>
		<g>
			<path fill="#656D78" d="M41,46.169v4.01H23v-4.01c0-1.101,0.89-2,2-2h5.47h3H39C40.1,44.169,41,45.068,41,46.169z"/>
		</g>
		<g>
			<path fill="#A0D468" d="M54.03,50.719c0.63,0.53,2.25,2.76,1.72,3.4c-0.54,0.63-3.01-0.57-3.65-1.101
				c-0.63-0.529-0.72-1.479-0.18-2.12C52.45,50.269,53.4,50.188,54.03,50.719z"/>
		</g>
		<g>
			<path fill="#A0D468" d="M58.35,42.188c0.78,0.28,3.061,1.82,2.78,2.61c-0.28,0.77-3.02,0.49-3.8,0.21
				c-0.771-0.28-1.17-1.12-0.91-1.89c0-0.011,0.01-0.03,0.01-0.04c0.011-0.011,0.011-0.03,0.021-0.04
				C56.74,42.289,57.59,41.909,58.35,42.188z"/>
		</g>
		<g>
			<path fill="#A0D468" d="M59.5,32.688c0.83,0,3.5,0.67,3.5,1.5s-2.67,1.5-3.5,1.5s-1.5-0.67-1.5-1.5S58.67,32.688,59.5,32.688z"/>
		</g>
		<g>
			<path fill="#A0D468" d="M61.13,23.589c0.28,0.78-2,2.32-2.78,2.61c-0.75,0.27-1.6-0.101-1.899-0.851
				c-0.01-0.02-0.01-0.03-0.021-0.05c0-0.01-0.01-0.03-0.01-0.04c-0.26-0.77,0.14-1.6,0.91-1.88
				C58.11,23.089,60.85,22.809,61.13,23.589z"/>
		</g>
		<g>
			<path fill="#A0D468" d="M55.75,14.259c0.53,0.64-1.09,2.87-1.72,3.4c-0.641,0.54-1.58,0.449-2.11-0.181
				c-0.54-0.64-0.45-1.58,0.18-2.12C52.74,14.829,55.21,13.629,55.75,14.259z"/>
		</g>
		<g>
			<path fill="#A0D468" d="M47.05,11.129c-0.39,0.649-1.18,0.92-1.87,0.64c-0.029-0.01-0.05-0.029-0.08-0.04
				c-0.029-0.02-0.069-0.029-0.1-0.05c-0.72-0.42-0.96-1.34-0.55-2.06c0.41-0.71,2.33-2.69,3.05-2.28
				C48.22,7.759,47.46,10.409,47.05,11.129z"/>
		</g>
		<g>
			<path fill="#A0D468" d="M18.9,11.729c-0.021,0.011-0.051,0.03-0.08,0.04c-0.69,0.28-1.49,0.01-1.87-0.649
				c-0.42-0.71-1.17-3.36-0.45-3.78c0.72-0.41,2.63,1.57,3.05,2.29c0.41,0.71,0.17,1.63-0.55,2.05
				C18.97,11.699,18.94,11.709,18.9,11.729z"/>
		</g>
		<g>
			<path fill="#A0D468" d="M12.08,17.479c-0.53,0.63-1.48,0.721-2.11,0.181c-0.64-0.53-2.25-2.761-1.72-3.4
				c0.53-0.63,3.01,0.57,3.65,1.11C12.53,15.898,12.62,16.849,12.08,17.479z"/>
		</g>
		<g>
			<path fill="#A0D468" d="M6.67,23.379c0.771,0.28,1.17,1.11,0.91,1.88c0,0.01-0.01,0.03-0.01,0.04
				c-0.011,0.02-0.011,0.03-0.021,0.05c-0.31,0.75-1.149,1.12-1.91,0.84c-0.77-0.279-3.06-1.819-2.77-2.6
				C3.15,22.809,5.89,23.089,6.67,23.379z"/>
		</g>
		<g>
			<path fill="#A0D468" d="M6,34.188c0,0.83-0.67,1.5-1.5,1.5s-3.5-0.67-3.5-1.5s2.67-1.5,3.5-1.5S6,33.358,6,34.188z"/>
		</g>
		<g>
			<path fill="#A0D468" d="M5.64,42.188c0.75-0.279,1.58,0.08,1.891,0.811c0.02,0.06,0.04,0.12,0.069,0.17
				c0.221,0.76-0.18,1.56-0.93,1.84c-0.78,0.28-3.52,0.56-3.8-0.22C2.58,44.009,4.86,42.469,5.64,42.188z"/>
		</g>
		<g>
			<path fill="#A0D468" d="M12.08,50.898c0.53,0.641,0.45,1.58-0.18,2.12c-0.641,0.53-3.12,1.73-3.65,1.101
				c-0.53-0.641,1.08-2.87,1.72-3.4C10.6,50.188,11.55,50.269,12.08,50.898z"/>
		</g>
	</g>
	<g>
		<g>
			<path d="M18.993,57.71c-0.17,0-0.343-0.043-0.5-0.135C10.17,52.757,5,43.797,5,34.191s5.172-18.566,13.496-23.384
				c0.479-0.279,1.089-0.113,1.366,0.364c0.277,0.479,0.113,1.09-0.364,1.366C11.789,17,7,25.297,7,34.191
				c0,8.894,4.788,17.191,12.495,21.653c0.478,0.276,0.642,0.889,0.364,1.366C19.674,57.531,19.338,57.71,18.993,57.71z"/>
		</g>
		<g>
			<path d="M45.003,57.711c-0.346,0-0.681-0.179-0.866-0.499c-0.277-0.478-0.113-1.09,0.364-1.366
				C52.211,51.383,57,43.086,57,34.191c0-8.896-4.79-17.194-12.501-21.655c-0.478-0.276-0.642-0.888-0.364-1.366
				c0.274-0.479,0.885-0.643,1.366-0.364C53.827,15.623,59,24.584,59,34.191c0,9.605-5.172,18.566-13.497,23.385
				C45.345,57.668,45.173,57.711,45.003,57.711z"/>
		</g>
		<g>
			<path d="M59.5,36.691c-1.379,0-2.5-1.121-2.5-2.5s1.121-2.5,2.5-2.5c0.534,0,4.5,0.528,4.5,2.5S60.034,36.691,59.5,36.691z
				 M59.5,33.691c-0.275,0-0.5,0.225-0.5,0.5s0.225,0.5,0.5,0.5c0.451,0,1.411-0.242,2.041-0.5
				C60.911,33.934,59.951,33.691,59.5,33.691z"/>
		</g>
		<g>
			<path d="M4.5,36.69c-0.534,0-4.5-0.528-4.5-2.5s3.966-2.5,4.5-2.5c1.379,0,2.5,1.121,2.5,2.5S5.879,36.69,4.5,36.69z
				 M2.459,34.19c0.63,0.258,1.59,0.5,2.041,0.5c0.275,0,0.5-0.225,0.5-0.5s-0.225-0.5-0.5-0.5
				C4.049,33.69,3.089,33.933,2.459,34.19z"/>
		</g>
		<g>
			<path d="M57.843,27.287c-1.048,0-1.992-0.662-2.351-1.646c-0.472-1.295,0.199-2.732,1.495-3.204
				c0.561-0.204,1.615-0.353,2.507-0.353c0.532,0,2.153,0,2.576,1.163c0.432,1.186-0.867,2.253-1.295,2.604
				c-0.669,0.551-1.544,1.091-2.079,1.285C58.422,27.236,58.134,27.287,57.843,27.287z M59.494,24.084
				c-0.764,0-1.563,0.137-1.823,0.231c-0.26,0.095-0.394,0.383-0.3,0.642c0.11,0.303,0.421,0.378,0.641,0.3
				c0.424-0.154,1.242-0.71,1.747-1.167C59.68,24.086,59.592,24.084,59.494,24.084z"/>
		</g>
		<g>
			<path d="M4.506,46.298c-0.532,0-2.153,0-2.576-1.163c-0.432-1.187,0.867-2.253,1.295-2.604c0.669-0.55,1.544-1.09,2.079-1.284
				c1.258-0.461,2.747,0.235,3.204,1.494c0.472,1.295-0.199,2.732-1.495,3.204C6.452,46.149,5.397,46.298,4.506,46.298z
				 M4.242,44.292c0.079,0.004,0.166,0.006,0.264,0.006c0.764,0,1.563-0.137,1.823-0.231c0.26-0.095,0.394-0.383,0.3-0.642
				c-0.11-0.303-0.421-0.383-0.641-0.299C5.564,43.28,4.746,43.835,4.242,44.292z"/>
		</g>
		<g>
			<path d="M53.067,19.016c-0.742,0-1.44-0.326-1.917-0.894c-0.886-1.057-0.747-2.638,0.31-3.523
				c0.637-0.533,2.55-1.514,3.766-1.514c0.692,0,1.083,0.293,1.289,0.538c0.811,0.966-0.046,2.413-0.327,2.89
				c-0.441,0.745-1.078,1.553-1.515,1.919C54.225,18.808,53.654,19.016,53.067,19.016z M54.628,15.209
				c-0.702,0.219-1.592,0.678-1.883,0.923c-0.138,0.115-0.17,0.263-0.177,0.34s-0.001,0.228,0.115,0.365
				c0.147,0.177,0.384,0.33,0.703,0.063C53.732,16.61,54.31,15.811,54.628,15.209z"/>
		</g>
		<g>
			<path d="M8.774,55.297c-0.692,0-1.083-0.292-1.288-0.536c-0.812-0.967,0.045-2.415,0.326-2.891
				c0.441-0.745,1.078-1.552,1.515-1.918c1.017-0.854,2.668-0.707,3.521,0.308c0.43,0.513,0.634,1.161,0.575,1.826
				s-0.372,1.268-0.884,1.697C11.903,54.316,9.99,55.297,8.774,55.297z M10.933,51.368c-0.082,0-0.205,0.02-0.319,0.116
				c-0.346,0.29-0.926,1.092-1.243,1.694c0.691-0.219,1.591-0.683,1.885-0.929c0.138-0.115,0.17-0.262,0.177-0.339
				s0.001-0.228-0.115-0.365C11.222,51.433,11.082,51.368,10.933,51.368z"/>
		</g>
		<g>
			<path d="M45.749,12.877c-0.438,0-0.869-0.116-1.249-0.335c-0.578-0.334-0.992-0.874-1.164-1.52
				c-0.173-0.646-0.084-1.319,0.251-1.898c0.287-0.499,2.168-2.836,3.685-2.836c0.265,0,0.511,0.064,0.729,0.19
				c1.707,0.986,0.182,4.686-0.085,5.148C47.471,12.398,46.64,12.877,45.749,12.877z M46.773,8.594
				c-0.523,0.413-1.228,1.136-1.455,1.53c-0.091,0.158-0.07,0.307-0.051,0.382c0.021,0.075,0.077,0.214,0.232,0.304
				c0.2,0.116,0.51,0.116,0.684-0.183C46.411,10.233,46.683,9.27,46.773,8.594z"/>
		</g>
		<g>
			<path d="M18.255,12.876c-0.892,0-1.723-0.479-2.17-1.25c-0.391-0.675-1.132-2.907-0.794-4.167c0.148-0.558,0.469-0.841,0.71-0.98
				c0.219-0.126,0.464-0.19,0.729-0.19c1.512,0,3.396,2.337,3.687,2.838c0.334,0.579,0.423,1.253,0.249,1.898
				c-0.173,0.646-0.587,1.185-1.165,1.519C19.121,12.762,18.69,12.876,18.255,12.876z M17.229,8.607
				c0.091,0.674,0.36,1.627,0.586,2.017c0.176,0.301,0.485,0.303,0.688,0.186c0.154-0.089,0.212-0.229,0.231-0.304
				c0.021-0.075,0.041-0.224-0.049-0.379C18.46,9.736,17.768,9.024,17.229,8.607z"/>
		</g>
		<g>
			<path d="M10.935,19.015c-0.586,0-1.157-0.207-1.608-0.584c-0.437-0.367-1.073-1.174-1.514-1.919
				c-0.281-0.476-1.137-1.924-0.324-2.891c0.205-0.244,0.596-0.536,1.288-0.536c1.213,0,3.128,0.98,3.767,1.514
				c0.512,0.431,0.825,1.033,0.884,1.699c0.058,0.666-0.146,1.314-0.576,1.826C12.373,18.69,11.675,19.015,10.935,19.015z
				 M9.371,15.203c0.316,0.603,0.895,1.404,1.239,1.694c0.323,0.269,0.561,0.115,0.71-0.062c0.114-0.136,0.12-0.287,0.113-0.364
				s-0.038-0.225-0.175-0.34C10.965,15.887,10.063,15.422,9.371,15.203z"/>
		</g>
		<g>
			<path d="M55.227,55.299c-1.212,0-3.128-0.979-3.767-1.513c-1.057-0.887-1.193-2.467-0.308-3.523
				c0.851-1.016,2.504-1.162,3.521-0.31c0.41,0.346,3.103,3.303,1.84,4.809C56.308,55.007,55.917,55.299,55.227,55.299z
				 M53.068,51.369c-0.148,0-0.288,0.065-0.383,0.178c-0.179,0.213-0.152,0.529,0.058,0.706c0.294,0.244,1.194,0.708,1.886,0.926
				c-0.317-0.602-0.896-1.403-1.242-1.694C53.273,51.39,53.151,51.369,53.068,51.369z"/>
		</g>
		<g>
			<path d="M6.158,27.286c-0.292,0-0.58-0.051-0.855-0.15c-0.503-0.183-4.047-2.034-3.372-3.89c0.425-1.162,2.044-1.162,2.575-1.162
				c0.892,0,1.947,0.147,2.51,0.352c0.628,0.229,1.129,0.688,1.411,1.294s0.313,1.286,0.084,1.913
				C8.149,26.626,7.205,27.286,6.158,27.286z M4.242,24.09c0.504,0.457,1.32,1.012,1.743,1.166c0.256,0.09,0.554-0.048,0.647-0.301
				c0.061-0.166,0.015-0.31-0.019-0.38c-0.033-0.071-0.113-0.198-0.281-0.26c-0.261-0.095-1.063-0.231-1.827-0.231
				C4.409,24.084,4.321,24.086,4.242,24.09z"/>
		</g>
		<g>
			<path d="M59.494,46.3c-0.89,0-1.943-0.147-2.506-0.351c-1.296-0.473-1.965-1.91-1.493-3.206c0.454-1.258,1.937-1.958,3.203-1.494
				c0.503,0.184,4.044,2.041,3.374,3.888C61.646,46.3,60.026,46.3,59.494,46.3z M57.844,43.098c-0.175,0-0.387,0.102-0.469,0.327
				c-0.095,0.262,0.038,0.551,0.296,0.645c0.259,0.094,1.06,0.23,1.823,0.23c0.097,0,0.185-0.003,0.263-0.006
				c-0.505-0.457-1.321-1.012-1.745-1.166C57.958,43.107,57.9,43.098,57.844,43.098z"/>
		</g>
		<g>
			<g>
				<g>
					<g>
						<path d="M23,47.173c-0.553,0-1-0.447-1-1c0-1.654,1.346-3,3-3c0.553,0,1,0.447,1,1s-0.447,1-1,1c-0.552,0-1,0.448-1,1
							C24,46.726,23.553,47.173,23,47.173z"/>
					</g>
					<g>
						<path d="M23,51.178c-0.553,0-1-0.447-1-1v-4.005c0-0.553,0.447-1,1-1s1,0.447,1,1v4.005C24,50.73,23.553,51.178,23,51.178z"/>
					</g>
				</g>
				<g>
					<g>
						<path d="M41,47.173c-0.553,0-1-0.447-1-1c0-0.552-0.448-1-1-1c-0.553,0-1-0.447-1-1s0.447-1,1-1c1.654,0,3,1.346,3,3
							C42,46.726,41.553,47.173,41,47.173z"/>
					</g>
					<g>
						<path d="M41,51.178c-0.553,0-1-0.447-1-1v-4.005c0-0.553,0.447-1,1-1s1,0.447,1,1v4.005C42,50.73,41.553,51.178,41,51.178z"/>
					</g>
				</g>
			</g>
			<g>
				<path d="M39,45.173H25c-0.553,0-1-0.447-1-1s0.447-1,1-1h14c0.553,0,1,0.447,1,1S39.553,45.173,39,45.173z"/>
			</g>
			<g>
				<path d="M30.474,45.172c-0.553,0-1-0.447-1-1v-20c0-0.553,0.447-1,1-1s1,0.447,1,1v20
					C31.474,44.725,31.026,45.172,30.474,45.172z"/>
			</g>
			<g>
				<path d="M33.473,45.172c-0.553,0-1-0.447-1-1v-20c0-0.553,0.447-1,1-1s1,0.447,1,1v20
					C34.473,44.725,34.025,45.172,33.473,45.172z"/>
			</g>
			<g>
				<path d="M33.473,20.672c-0.553,0-1-0.447-1-1c0-0.275-0.225-0.5-0.5-0.5s-0.5,0.225-0.5,0.5c0,0.553-0.447,1-1,1s-1-0.447-1-1
					c0-1.379,1.121-2.5,2.5-2.5s2.5,1.121,2.5,2.5C34.473,20.225,34.025,20.672,33.473,20.672z"/>
			</g>
			<g>
				<path d="M44.486,25.172c-0.553,0-1-0.447-1-1s0.447-1,1-1c0.275,0,0.5-0.225,0.5-0.5s-0.225-0.5-0.5-0.5c-0.553,0-1-0.447-1-1
					s0.447-1,1-1c1.379,0,2.5,1.121,2.5,2.5S45.865,25.172,44.486,25.172z"/>
			</g>
			<g>
				<path d="M19.487,25.172c-1.379,0-2.5-1.121-2.5-2.5s1.121-2.5,2.5-2.5c0.553,0,1,0.447,1,1s-0.447,1-1,1
					c-0.275,0-0.5,0.225-0.5,0.5s0.225,0.5,0.5,0.5c0.553,0,1,0.447,1,1S20.04,25.172,19.487,25.172z"/>
			</g>
			<g>
				<path d="M44.486,22.173H19.555c-0.553,0-1-0.447-1-1s0.447-1,1-1h24.932c0.553,0,1,0.447,1,1S45.039,22.173,44.486,22.173z"/>
			</g>
			<g>
				<path d="M44.486,25.172H19.555c-0.553,0-1-0.447-1-1s0.447-1,1-1h24.932c0.553,0,1,0.447,1,1S45.039,25.172,44.486,25.172z"/>
			</g>
			<g>
				<path d="M30.473,22.173c-0.553,0-1-0.447-1-1v-1.501c0-0.553,0.447-1,1-1s1,0.447,1,1v1.501
					C31.473,21.726,31.025,22.173,30.473,22.173z"/>
			</g>
			<g>
				<path d="M33.473,22.172c-0.553,0-1-0.447-1-1v-1.5c0-0.553,0.447-1,1-1s1,0.447,1,1v1.5
					C34.473,21.725,34.025,22.172,33.473,22.172z"/>
			</g>
			<g>
				<path d="M19.988,40.174c-2.757,0-5-2.243-5-5c0-0.553,0.447-1,1-1s1,0.447,1,1c0,1.654,1.346,3,3,3s3-1.346,3-3
					c0-0.553,0.447-1,1-1s1,0.447,1,1C24.988,37.931,22.745,40.174,19.988,40.174z"/>
			</g>
			<g>
				<path d="M23.988,36.174h-8c-0.553,0-1-0.447-1-1s0.447-1,1-1h8c0.553,0,1,0.447,1,1S24.541,36.174,23.988,36.174z"/>
			</g>
			<g>
				<path d="M15.988,36.174c-0.113,0-0.229-0.02-0.342-0.061c-0.519-0.188-0.787-0.762-0.598-1.281L19.05,23.83
					c0.188-0.52,0.762-0.785,1.281-0.598c0.519,0.188,0.787,0.762,0.598,1.281l-4.001,11.002
					C16.78,35.922,16.396,36.174,15.988,36.174z"/>
			</g>
			<g>
				<path d="M23.988,36.174c-0.408,0-0.792-0.252-0.939-0.658L19.05,24.514c-0.189-0.52,0.079-1.093,0.598-1.281
					c0.522-0.188,1.093,0.078,1.281,0.598l3.999,11.002c0.189,0.52-0.079,1.093-0.598,1.281
					C24.217,36.154,24.102,36.174,23.988,36.174z"/>
			</g>
			<g>
				<path d="M44.012,40.174c-2.757,0-5-2.243-5-5c0-0.553,0.447-1,1-1s1,0.447,1,1c0,1.654,1.346,3,3,3s3-1.346,3-3
					c0-0.553,0.447-1,1-1s1,0.447,1,1C49.012,37.931,46.769,40.174,44.012,40.174z"/>
			</g>
			<g>
				<path d="M48.012,36.174h-8c-0.553,0-1-0.447-1-1s0.447-1,1-1h8c0.553,0,1,0.447,1,1S48.564,36.174,48.012,36.174z"/>
			</g>
			<g>
				<path d="M40.012,36.174c-0.113,0-0.229-0.02-0.342-0.061c-0.519-0.188-0.787-0.762-0.598-1.281l4.001-11.002
					c0.188-0.52,0.76-0.785,1.281-0.598c0.519,0.188,0.787,0.762,0.598,1.281l-4.001,11.002
					C40.804,35.922,40.42,36.174,40.012,36.174z"/>
			</g>
			<g>
				<path d="M48.012,36.174c-0.408,0-0.792-0.252-0.939-0.658l-3.999-11.002c-0.189-0.52,0.079-1.093,0.598-1.281
					c0.521-0.188,1.093,0.078,1.281,0.598l3.999,11.002c0.189,0.52-0.079,1.093-0.598,1.281
					C48.24,36.154,48.125,36.174,48.012,36.174z"/>
			</g>
		</g>
		<g>
			<path d="M41,51.178H23c-0.553,0-1-0.447-1-1s0.447-1,1-1h18c0.553,0,1,0.447,1,1S41.553,51.178,41,51.178z"/>
		</g>
	</g>
</g>
<g id="_x32_9">
</g>
<g id="_x32_8">
</g>
<g id="_x32_7">
</g>
<g id="_x32_6">
</g>
<g id="_x32_5">
</g>
<g id="_x32_4">
</g>
<g id="_x32_3">
</g>
<g id="_x32_2">
</g>
<g id="_x32_1">
</g>
<g id="_x32_0">
</g>
<g id="_x31_9">
</g>
<g id="_x31_8">
</g>
<g id="_x31_7">
</g>
<g id="_x31_6">
</g>
<g id="_x31_5">
</g>
<g id="_x31_4">
</g>
<g id="_x31_3">
</g>
<g id="_x31_2">
</g>
<g id="_x31_1">
</g>
<g id="_x31_0">
</g>
<g id="_x39_">
</g>
<g id="_x38_">
</g>
<g id="_x37_">
</g>
<g id="_x36_">
</g>
<g id="_x35_">
</g>
<g id="_x34_">
</g>
<g id="_x33_">
</g>
<g id="_x32_">
</g>
<g id="_x31_">
</g>
</svg>
