<?xml version="1.0" encoding="utf-8"?>
<!-- Generator: Adobe Illustrator 16.0.0, SVG Export Plug-In . SVG Version: 6.00 Build 0)  -->
<!DOCTYPE svg PUBLIC "-//W3C//DTD SVG 1.1//EN" "http://www.w3.org/Graphics/SVG/1.1/DTD/svg11.dtd">
<svg version="1.1" xmlns="http://www.w3.org/2000/svg" xmlns:xlink="http://www.w3.org/1999/xlink" x="0px" y="0px" width="64px"
	 height="64px" viewBox="0 0 64 64" enable-background="new 0 0 64 64" xml:space="preserve">
<g id="_x35_0">
</g>
<g id="_x34_9">
</g>
<g id="_x34_8">
</g>
<g id="_x34_7">
</g>
<g id="_x34_6">
</g>
<g id="_x34_5">
</g>
<g id="_x34_4">
</g>
<g id="_x34_3">
</g>
<g id="_x34_2">
</g>
<g id="_x34_1">
	<g>
		<g>
			<path fill="#FFCE54" d="M7.02,41.025h12c-0.01,3.3-2.689,5.979-6,5.979C9.721,47.005,7.029,44.325,7.02,41.025z"/>
		</g>
		<g>
			<path fill="#FFCE54" d="M56.971,41.025h0.01c-0.01,3.3-2.701,5.979-6,5.979c-3.311,0-5.99-2.68-6-5.979H56.971z"/>
		</g>
		<g>
			<polygon fill="#E6E9ED" points="34.98,20.985 34.98,58.005 31.98,63.005 28.98,58.005 28.98,20.985 			"/>
		</g>
		<g>
			<path fill="#E6E9ED" d="M10.51,16.985h13.48c-1.66,0-3.01,1.35-3.01,3c0,0.01,0,0.01,0,0.02h-7.93H10.51
				c-0.83,0-1.5-0.67-1.5-1.5c0-0.82,0.67-1.5,1.5-1.5V16.985z"/>
		</g>
		<g>
			<path fill="#E6E9ED" d="M39.98,16.985h13.51v0.02c0.83,0,1.5,0.68,1.5,1.5c0,0.83-0.67,1.5-1.5,1.5h-2.539H42.98
				c0-0.01,0-0.01,0-0.02C42.98,18.335,41.641,16.985,39.98,16.985z"/>
		</g>
		<g>
			<path fill="#FFCE54" d="M31.98,0.995c1.66,0,3,1.34,3,3c0,0.88-0.381,1.68-1,2.229c-0.529,0.48-1.23,0.771-2,0.771
				s-1.461-0.29-2-0.771c-0.609-0.55-1-1.35-1-2.229C28.98,2.335,30.33,0.995,31.98,0.995z"/>
		</g>
		<g>
			<path fill="#ED5565" d="M33.98,6.225v3.78l-4,4v-7.78c0.539,0.48,1.23,0.771,2,0.771S33.451,6.705,33.98,6.225z"/>
		</g>
		<g>
			<polygon fill="#ED5565" points="33.98,10.005 33.98,16.985 29.98,16.985 29.98,14.005 			"/>
		</g>
		<g>
			<path fill="#FFCE54" d="M42.98,20.005c0,1.65-1.35,2.98-3,2.98c-1.301,0-2.41-0.83-2.82-2h-2.18h-6h-2.17
				c-0.41,1.17-1.52,2-2.83,2c-1.641,0-2.99-1.33-3-2.98c0-0.01,0-0.01,0-0.02c0-1.65,1.35-3,3.01-3h0.02h5.971h4h6
				c1.66,0,3,1.35,3,3C42.98,19.995,42.98,19.995,42.98,20.005z"/>
		</g>
	</g>
	<g>
		<g>
			<g>
				<g>
					<path d="M24.016,20.991c-0.553,0-1.005-0.447-1.005-1s0.442-1,0.994-1h0.011c0.552,0,1,0.447,1,1S24.567,20.991,24.016,20.991z
						"/>
				</g>
				<g>
					<path d="M31.986,64.005c-0.34,0-0.671-0.173-0.858-0.485l-3-5c-0.284-0.474-0.131-1.088,0.343-1.372
						c0.475-0.285,1.089-0.13,1.372,0.343l3,5c0.284,0.474,0.131,1.088-0.343,1.372C32.339,63.959,32.161,64.005,31.986,64.005z"/>
				</g>
				<g>
					<path d="M31.984,64.005c-0.175,0-0.353-0.046-0.514-0.143c-0.474-0.284-0.627-0.898-0.343-1.372l3-5
						c0.283-0.473,0.898-0.628,1.372-0.343c0.474,0.284,0.627,0.898,0.343,1.372l-3,5C32.655,63.832,32.324,64.005,31.984,64.005z"
						/>
				</g>
				<g>
					<path d="M28.985,59.005c-0.553,0-1-0.447-1-1V20.991c0-0.553,0.447-1,1-1s1,0.447,1,1v37.014
						C29.985,58.558,29.538,59.005,28.985,59.005z"/>
				</g>
				<g>
					<path d="M34.985,59.005c-0.553,0-1-0.447-1-1V20.991c0-0.553,0.447-1,1-1s1,0.447,1,1v37.014
						C35.985,58.558,35.538,59.005,34.985,59.005z"/>
				</g>
				<g>
					<path d="M37.161,21.991H26.813c-0.553,0-1-0.447-1-1s0.447-1,1-1h10.348c0.553,0,1,0.447,1,1S37.714,21.991,37.161,21.991z"/>
				</g>
				<g>
					<path d="M39.985,17.989H23.987c-0.553,0-1-0.447-1-1s0.447-1,1-1h15.998c0.553,0,1,0.447,1,1S40.538,17.989,39.985,17.989z"/>
				</g>
				<g>
					<path d="M23.986,23.991c-2.207-0.003-4.001-1.797-4.001-4c0-2.204,1.795-3.999,4.001-4.002h0.001c0.552,0,0.999,0.447,1,0.999
						s-0.446,1-0.999,1.001c-1.104,0.001-2.003,0.899-2.003,2.002c0,1.102,0.897,1.999,2.001,2c1.102-0.001,1.999-0.898,1.999-2
						c0-0.553,0.447-1,1-1s1,0.447,1,1C27.985,22.194,26.191,23.988,23.986,23.991z"/>
				</g>
				<g>
					<path d="M40.016,20.989c-0.553,0-1.005-0.447-1.005-1s0.442-1,0.994-1h0.011c0.552,0,1,0.447,1,1S40.567,20.989,40.016,20.989z
						"/>
				</g>
				<g>
					<path d="M39.986,23.991c-2.205,0-4-1.794-4.003-3.999c-0.001-0.552,0.446-1,0.999-1.001h0.001c0.552,0,0.999,0.447,1,0.999
						c0.001,1.104,0.899,2.001,2.002,2.001c0.534-0.001,1.037-0.209,1.415-0.588c0.378-0.378,0.586-0.88,0.585-1.413
						c0-1.103-0.897-2-2.001-2.001c-0.553-0.001-1-0.449-0.999-1.001s0.448-0.999,1-0.999h0.001c2.205,0.003,3.999,1.797,3.999,4
						c0.001,1.067-0.414,2.072-1.17,2.828S41.056,23.99,39.986,23.991z"/>
				</g>
				<g>
					<path d="M33.985,17.989c-0.553,0-1-0.447-1-1V6.229c0-0.553,0.447-1,1-1s1,0.447,1,1v10.76
						C34.985,17.542,34.538,17.989,33.985,17.989z"/>
				</g>
				<g>
					<path d="M29.985,17.989c-0.553,0-1-0.447-1-1V6.226c0-0.553,0.447-1,1-1s1,0.447,1,1v10.764
						C30.985,17.542,30.538,17.989,29.985,17.989z"/>
				</g>
				<g>
					<path d="M31.985,7.993c-2.206,0-4-1.794-4-3.998c0-2.206,1.793-4,3.996-4c2.211,0,4.004,1.794,4.004,4
						C35.985,6.199,34.191,7.993,31.985,7.993z M31.989,1.995c-1.108,0-2.004,0.897-2.004,2c0,1.102,0.897,1.998,2,1.998
						s2-0.896,2-1.998C33.985,2.893,33.09,1.995,31.989,1.995z"/>
				</g>
				<g>
					<path d="M31.985,53.011c-0.553,0-1-0.447-1-1V29.23c0-0.553,0.447-1,1-1s1,0.447,1,1v22.78
						C32.985,52.563,32.538,53.011,31.985,53.011z"/>
				</g>
			</g>
		</g>
		<g>
			<g>
				<path d="M50.978,48.007c-3.86,0-7.001-3.141-7.001-7c0-0.553,0.447-1,1-1s1,0.447,1,1c0,2.757,2.243,5,5.001,5
					s5.001-2.243,5.001-5c0-0.553,0.447-1,1-1s1,0.447,1,1C57.979,44.866,54.838,48.007,50.978,48.007z"/>
			</g>
			<g>
				<path d="M56.976,42.023H44.979c-0.553,0-1-0.447-1-1s0.447-1,1-1h11.996c0.553,0,1,0.447,1,1S57.528,42.023,56.976,42.023z"/>
			</g>
			<g>
				<path d="M56.975,42.023c-0.435,0-0.835-0.285-0.96-0.725L49.99,20.286c-0.152-0.53,0.154-1.084,0.686-1.236
					c0.531-0.151,1.085,0.154,1.236,0.686l6.024,21.013c0.152,0.53-0.154,1.084-0.686,1.236
					C57.159,42.011,57.066,42.023,56.975,42.023z"/>
			</g>
			<g>
				<path d="M44.98,42.023c-0.091,0-0.183-0.012-0.274-0.038c-0.531-0.151-0.84-0.704-0.688-1.235l5.972-21.013
					c0.151-0.531,0.701-0.844,1.235-0.688c0.531,0.151,0.84,0.704,0.688,1.235l-5.972,21.013
					C45.816,41.736,45.416,42.023,44.98,42.023z"/>
			</g>
			<g>
				<path d="M53.493,17.989H39.985c-0.553,0-1-0.447-1-1s0.447-1,1-1h13.508c0.553,0,1,0.447,1,1S54.046,17.989,53.493,17.989z"/>
			</g>
			<g>
				<path d="M53.493,21.01H42.944c-0.553,0-1-0.447-1-1s0.447-1,1-1h10.549c0.553,0,1,0.447,1,1S54.046,21.01,53.493,21.01z"/>
			</g>
			<g>
				<path d="M53.493,21.011c-0.553,0-1-0.447-1-1s0.447-1,1-1c0.275,0,0.5-0.225,0.5-0.5s-0.225-0.5-0.5-0.5c-0.553,0-1-0.447-1-1
					s0.447-1,1-1c1.379,0,2.5,1.121,2.5,2.5S54.872,21.011,53.493,21.011z"/>
			</g>
		</g>
		<g>
			<g>
				<path d="M13.022,48.007c-3.86,0-7.001-3.141-7.001-7c0-0.553,0.447-1,1-1s1,0.447,1,1c0,2.757,2.243,5,5.001,5
					s5.001-2.243,5.001-5c0-0.553,0.447-1,1-1s1,0.447,1,1C20.023,44.866,16.883,48.007,13.022,48.007z"/>
			</g>
			<g>
				<path d="M19.021,42.023H7.024c-0.553,0-1-0.447-1-1s0.447-1,1-1h11.996c0.553,0,1,0.447,1,1S19.573,42.023,19.021,42.023z"/>
			</g>
			<g>
				<path d="M7.025,42.023c-0.092,0-0.185-0.013-0.276-0.039c-0.531-0.152-0.838-0.706-0.686-1.236l6.024-21.013
					c0.151-0.531,0.704-0.839,1.236-0.686c0.531,0.152,0.838,0.706,0.686,1.236L7.985,41.299C7.86,41.738,7.46,42.023,7.025,42.023z
					"/>
			</g>
			<g>
				<path d="M19.02,42.023c-0.436,0-0.836-0.287-0.961-0.727l-5.972-21.013c-0.151-0.531,0.157-1.084,0.688-1.235
					c0.533-0.153,1.084,0.157,1.235,0.688l5.972,21.013c0.151,0.531-0.157,1.084-0.688,1.235
					C19.202,42.012,19.11,42.023,19.02,42.023z"/>
			</g>
			<g>
				<path d="M24.015,17.989H10.507c-0.553,0-1-0.447-1-1s0.447-1,1-1h13.508c0.553,0,1,0.447,1,1S24.567,17.989,24.015,17.989z"/>
			</g>
			<g>
				<path d="M21.056,21.01H10.507c-0.553,0-1-0.447-1-1s0.447-1,1-1h10.549c0.553,0,1,0.447,1,1S21.608,21.01,21.056,21.01z"/>
			</g>
			<g>
				<path d="M10.507,21.011c-1.379,0-2.5-1.121-2.5-2.5s1.121-2.5,2.5-2.5c0.553,0,1,0.447,1,1s-0.447,1-1,1
					c-0.275,0-0.5,0.225-0.5,0.5s0.225,0.5,0.5,0.5c0.553,0,1,0.447,1,1S11.06,21.011,10.507,21.011z"/>
			</g>
		</g>
		<g>
			<path d="M29.985,15.011c-0.256,0-0.512-0.098-0.707-0.293c-0.391-0.39-0.391-1.023,0-1.414l4-4.004
				c0.391-0.391,1.023-0.391,1.414,0c0.391,0.39,0.391,1.023,0,1.414l-4,4.004C30.497,14.913,30.241,15.011,29.985,15.011z"/>
		</g>
	</g>
</g>
<g id="_x34_0">
</g>
<g id="_x33_9">
</g>
<g id="_x33_8">
</g>
<g id="_x33_7">
</g>
<g id="_x33_6">
</g>
<g id="_x33_5">
</g>
<g id="_x33_4">
</g>
<g id="_x33_3">
</g>
<g id="_x33_2">
</g>
<g id="_x33_1">
</g>
<g id="_x33_0">
</g>
<g id="_x32_9">
</g>
<g id="_x32_8">
</g>
<g id="_x32_7">
</g>
<g id="_x32_6">
</g>
<g id="_x32_5">
</g>
<g id="_x32_4">
</g>
<g id="_x32_3">
</g>
<g id="_x32_2">
</g>
<g id="_x32_1">
</g>
<g id="_x32_0">
</g>
<g id="_x31_9">
</g>
<g id="_x31_8">
</g>
<g id="_x31_7">
</g>
<g id="_x31_6">
</g>
<g id="_x31_5">
</g>
<g id="_x31_4">
</g>
<g id="_x31_3">
</g>
<g id="_x31_2">
</g>
<g id="_x31_1">
</g>
<g id="_x31_0">
</g>
<g id="_x39_">
</g>
<g id="_x38_">
</g>
<g id="_x37_">
</g>
<g id="_x36_">
</g>
<g id="_x35_">
</g>
<g id="_x34_">
</g>
<g id="_x33_">
</g>
<g id="_x32_">
</g>
<g id="_x31_">
</g>
</svg>
