<svg xmlns="http://www.w3.org/2000/svg" xmlns:xlink="http://www.w3.org/1999/xlink" viewBox="0 0 64 64"><defs><style>.cls-1{fill:#4795ea;}.cls-2{fill:url(#linear-gradient);}.cls-3{fill:url(#linear-gradient-2);}.cls-4{fill:url(#linear-gradient-3);}.cls-5{fill:url(#linear-gradient-4);}.cls-6{fill:url(#linear-gradient-5);}.cls-7{fill:url(#linear-gradient-6);}.cls-8{fill:url(#linear-gradient-7);}.cls-9{fill:url(#linear-gradient-8);}.cls-10{fill:url(#linear-gradient-9);}.cls-11{fill:url(#linear-gradient-10);}.cls-12{fill:url(#linear-gradient-11);}.cls-13{fill:url(#linear-gradient-12);}.cls-14{fill:url(#linear-gradient-13);}.cls-15{fill:url(#linear-gradient-14);}.cls-16{fill:url(#linear-gradient-15);}</style><linearGradient id="linear-gradient" x1="28.5" y1="54.5" x2="28.5" y2="20.5" gradientUnits="userSpaceOnUse"><stop offset="0" stop-color="#54a5ff"/><stop offset="1" stop-color="#8ad3fe"/></linearGradient><linearGradient id="linear-gradient-2" x1="25.5" y1="42.5" x2="48.5" y2="42.5" gradientUnits="userSpaceOnUse"><stop offset="0" stop-color="#d3e6f5"/><stop offset="1" stop-color="#f0f7fc"/></linearGradient><linearGradient id="linear-gradient-3" y1="47.5" y2="47.5" xlink:href="#linear-gradient-2"/><linearGradient id="linear-gradient-4" y1="37.5" y2="37.5" xlink:href="#linear-gradient-2"/><linearGradient id="linear-gradient-5" x1="17.5" y1="28.5" x2="19.5" y2="28.5" xlink:href="#linear-gradient-2"/><linearGradient id="linear-gradient-6" x1="17.5" y1="34.5" x2="19.5" y2="34.5" xlink:href="#linear-gradient-2"/><linearGradient id="linear-gradient-7" x1="17.5" y1="40.5" x2="19.5" y2="40.5" xlink:href="#linear-gradient-2"/><linearGradient id="linear-gradient-8" x1="17.5" y1="46.5" x2="19.5" y2="46.5" xlink:href="#linear-gradient-2"/><linearGradient id="linear-gradient-9" x1="5.5" y1="32.5" x2="15.5" y2="32.5" xlink:href="#linear-gradient-2"/><linearGradient id="linear-gradient-10" x1="5.5" x2="15.5" xlink:href="#linear-gradient-2"/><linearGradient id="linear-gradient-11" x1="5.5" y1="37.5" x2="15.5" y2="37.5" xlink:href="#linear-gradient-2"/><linearGradient id="linear-gradient-12" x1="5.5" y1="47.5" x2="15.5" y2="47.5" xlink:href="#linear-gradient-2"/><linearGradient id="linear-gradient-13" x1="5.5" y1="27.5" x2="15.5" y2="27.5" xlink:href="#linear-gradient-2"/><linearGradient id="linear-gradient-14" x1="23.5" y1="30" x2="50.5" y2="30" gradientUnits="userSpaceOnUse"><stop offset="0" stop-color="#fe9661"/><stop offset="1" stop-color="#ffb369"/></linearGradient><linearGradient id="linear-gradient-15" x1="25.5" x2="48.5" xlink:href="#linear-gradient-14"/></defs><title>Cheque</title><g id="Cheque"><path class="cls-1" d="M60.5,9.5h-50a3,3,0,0,0-3,3v30a1,1,0,0,0,1,1H54.63a1,1,0,0,0,.43-.1,1.05,1.05,0,0,0,.44.1h5a3,3,0,0,0,3-3v-28A3,3,0,0,0,60.5,9.5Z"/><rect class="cls-2" x="0.5" y="20.5" width="56" height="34" rx="3"/><path class="cls-3" d="M47.5,43.5h-21a1,1,0,0,1,0-2h21a1,1,0,0,1,0,2Z"/><path class="cls-4" d="M47.5,48.5h-21a1,1,0,0,1,0-2h21a1,1,0,0,1,0,2Z"/><path class="cls-5" d="M47.5,38.5h-21a1,1,0,0,1,0-2h21a1,1,0,0,1,0,2Z"/><path class="cls-6" d="M18.5,30.5a1,1,0,0,1-1-1v-2a1,1,0,0,1,2,0v2A1,1,0,0,1,18.5,30.5Z"/><path class="cls-7" d="M18.5,36.5a1,1,0,0,1-1-1v-2a1,1,0,0,1,2,0v2A1,1,0,0,1,18.5,36.5Z"/><path class="cls-8" d="M18.5,42.5a1,1,0,0,1-1-1v-2a1,1,0,0,1,2,0v2A1,1,0,0,1,18.5,42.5Z"/><path class="cls-9" d="M18.5,48.5a1,1,0,0,1-1-1v-2a1,1,0,0,1,2,0v2A1,1,0,0,1,18.5,48.5Z"/><path class="cls-10" d="M14.5,31.5h-8a1,1,0,0,0,0,2h8a1,1,0,0,0,0-2Z"/><path class="cls-11" d="M14.5,41.5h-8a1,1,0,0,0,0,2h8a1,1,0,0,0,0-2Z"/><path class="cls-12" d="M14.5,36.5h-8a1,1,0,0,0,0,2h8a1,1,0,0,0,0-2Z"/><path class="cls-13" d="M14.5,46.5h-8a1,1,0,0,0,0,2h8a1,1,0,0,0,0-2Z"/><path class="cls-14" d="M6.5,28.5h8a1,1,0,0,0,0-2h-8a1,1,0,0,0,0,2Z"/><path class="cls-15" d="M49.5,25.5h-25a1,1,0,0,0-1,1v7a1,1,0,0,0,1,1h25a1,1,0,0,0,1-1v-7A1,1,0,0,0,49.5,25.5Zm-1,7h-23v-5h23Z"/><rect class="cls-16" x="25.5" y="27.5" width="23" height="5"/></g></svg>