<?xml version="1.0" encoding="utf-8"?>
<!-- Generator: Adobe Illustrator 16.0.0, SVG Export Plug-In . SVG Version: 6.00 Build 0)  -->
<!DOCTYPE svg PUBLIC "-//W3C//DTD SVG 1.1//EN" "http://www.w3.org/Graphics/SVG/1.1/DTD/svg11.dtd">
<svg version="1.1" id="Layer_1" xmlns="http://www.w3.org/2000/svg" xmlns:xlink="http://www.w3.org/1999/xlink" x="0px" y="0px"
	 width="128px" height="128px" viewBox="0 0 128 128" enable-background="new 0 0 128 128" xml:space="preserve">
<g>
	<g>
		<g>
			<path fill="#282D33" d="M81.949,82.947l-9.01-15.167l3.438-2.042l5.378,9.054l0.051-4.116V37.542
				c0-3.948,2.811-8.092,6.265-9.237c9.89-3.197,20.321-3.197,30.187-0.004c3.467,1.15,6.276,5.293,6.279,9.24v9.187h-3.999v-9.185
				c-0.002-2.235-1.683-4.83-3.525-5.441c-9.047-2.928-18.629-2.929-27.696,0.004c-1.798,0.596-3.51,3.24-3.51,5.437V70.7
				l-0.138,11.25L81.949,82.947z"/>
		</g>
		<g>
			<path fill="#282D33" d="M63.318,62.01c-5.379,0-9.756-4.404-9.756-9.817s4.376-9.817,9.756-9.817
				c5.378,0,9.755,4.404,9.755,9.817S68.696,62.01,63.318,62.01z M63.318,46.375c-3.174,0-5.756,2.61-5.756,5.818
				s2.582,5.818,5.756,5.818s5.755-2.61,5.755-5.818S66.492,46.375,63.318,46.375z"/>
		</g>
		<g>
			<path fill="#282D33" d="M76.535,93.472H51.185V66.129h25.351V93.472z M55.184,89.473h17.352V70.128H55.184V89.473z"/>
		</g>
		<g>
			<g>
				<rect x="55.727" y="91.016" fill="#282D33" width="3.999" height="19.681"/>
			</g>
			<g>
				<rect x="67.991" y="91.016" fill="#282D33" width="4" height="19.681"/>
			</g>
		</g>
		<g>
			<path fill="#282D33" d="M45.771,82.947l-3.676-0.609L34.14,44.602c-0.851-2.64-3.05-5.444-4.331-6.028
				c-3.268-1.433-6.07-2.108-8.792-2.11c-2.723,0.002-5.525,0.677-8.82,2.122c-1.266,0.58-3.501,3.44-4.334,6.104L6.47,49.38
				l-3.834-1.139l1.401-4.717c0.988-3.159,3.757-7.322,6.524-8.588c3.847-1.688,7.158-2.469,10.449-2.472
				c3.303,0.003,6.615,0.785,10.432,2.459c2.796,1.274,5.566,5.439,6.542,8.574l0.048,0.183l6.918,32.817l6.39-10.757l3.439,2.042
				L45.771,82.947z"/>
		</g>
		<g>
			<path fill="#282D33" d="M103.176,29.733c-6.945,0-12.595-5.687-12.595-12.677c0-6.988,5.649-12.673,12.595-12.673
				c6.941,0,12.588,5.685,12.588,12.673C115.764,24.046,110.117,29.733,103.176,29.733z M103.176,8.382
				c-4.74,0-8.596,3.891-8.596,8.673c0,4.785,3.855,8.678,8.596,8.678c4.735,0,8.588-3.893,8.588-8.678
				C111.764,12.273,107.911,8.382,103.176,8.382z"/>
		</g>
		<g>
			<path fill="#282D33" d="M21.016,35.737c-6.644,0-12.049-5.441-12.049-12.129s5.405-12.129,12.049-12.129
				s12.049,5.441,12.049,12.129S27.66,35.737,21.016,35.737z M21.016,15.479c-4.439,0-8.05,3.646-8.05,8.129s3.611,8.129,8.05,8.129
				c4.438,0,8.049-3.646,8.049-8.129S25.454,15.479,21.016,15.479z"/>
		</g>
	</g>
	<g>
		<g>
			<g>
				<g>
					<g>
						<path fill="#282D33" d="M24.119,87.609h-4V71.746c-0.542-3.021-2.661-6.174-5.598-6.175l-2.431,0.002
							c-0.075,0.01-0.152,0.016-0.23,0.019l-0.154-3.997c0.142-0.013,0.26-0.021,0.383-0.021l2.432-0.002
							c5.254,0.002,8.792,4.875,9.572,9.685l0.026,0.32V87.609z"/>
					</g>
					<g>
						<path fill="#282D33" d="M49.785,122.077h-4V111.95l-0.827-12.97l-16.921-17.05c-0.465,0.444-0.874,0.836-0.874,0.836
							c-1.874,1.785-2.715,5.461-1.217,7.511L36.74,101.15l-2.835,2.821L23.329,93.368c-0.128-0.136-0.25-0.275-0.365-0.419
							l-6.083-6.128l-6.526-6.944V63.218c-0.54-3.019-2.657-6.171-5.596-6.173L4.04,57.046l0.28,26.341l21.379,36.146l-3.443,2.037
							L0.333,84.501L0,53.198l1.887-0.125c0.183-0.016,0.308-0.024,0.439-0.024l2.431-0.003c5.257,0.004,8.793,4.875,9.571,9.684
							l0.026,0.319v15.245l5.403,5.75l1.606,1.618c0.413-2.22,1.501-4.325,3.038-5.789c2.277-2.178,2.336-2.226,2.41-2.286
							l1.406-1.151l20.637,20.794l0.931,14.657V122.077z"/>
					</g>
					<g>
						<rect x="17.659" y="119.618" fill="#282D33" width="37.875" height="3.999"/>
					</g>
				</g>
				<g>
					<g>
						<path fill="#282D33" d="M107.903,87.609h-3.999l0.025-16.352c0.776-4.811,4.313-9.684,9.566-9.686l2.439,0.002
							c0.121,0,0.238,0.008,0.355,0.019l-0.13,3.999c-0.078-0.003-0.156-0.009-0.233-0.017l-2.433-0.004
							c-2.935,0.001-5.052,3.153-5.592,6.175V87.609z"/>
					</g>
					<g>
						<path fill="#282D33" d="M82.229,122.077H78.23l0.004-10.318l0.931-14.53l20.633-20.786l1.405,1.139
							c0.117,0.096,0.166,0.135,2.398,2.441c1.502,1.432,2.574,3.51,2.987,5.705l1.711-1.724l5.365-5.71l0.025-15.563
							c0.777-4.81,4.313-9.68,9.569-9.684l2.436,0.003c0.131,0,0.257,0.009,0.383,0.02l1.844,0.162L128,55.09l-0.313,29.411
							l-21.924,37.069l-3.442-2.037l21.378-36.146l0.279-26.34l-0.72-0.002c-2.938,0.002-5.056,3.154-5.595,6.172v16.659
							l-6.489,6.905l-6.083,6.128c-0.135,0.173-0.278,0.341-0.432,0.504l-10.619,10.652l-3.013-2.615l0.25-0.301l10.804-10.884
							c1.398-2.022,0.555-5.641-1.298-7.405c-0.025-0.025-0.409-0.422-0.852-0.878L83.061,98.981l-0.831,12.97V122.077z"/>
					</g>
					<g>
						<rect x="72.487" y="119.618" fill="#282D33" width="37.873" height="3.999"/>
					</g>
				</g>
			</g>
		</g>
	</g>
</g>
</svg>
