<svg id="Layer_1" data-name="Layer 1" xmlns="http://www.w3.org/2000/svg" viewBox="0 0 128 128"><title>BUILDING</title><path d="M113.854,112.1h-5.8V23.235a1.751,1.751,0,0,0-1.75-1.75H87.25V14.146a1.75,1.75,0,0,0-3.5,0v7.339h-17.3V14.146A1.75,1.75,0,0,0,64.7,12.4h-43a1.751,1.751,0,0,0-1.75,1.75V112.1h-5.8a1.75,1.75,0,0,0,0,3.5h99.708a1.75,1.75,0,0,0,0-3.5Zm-9.3-87.119V112.1H96.2V38.732a1.75,1.75,0,0,0-1.75-1.75h-28v-12Zm-39.863,15.5H92.7V112.1H56.448V40.482ZM23.448,15.9h39.5V36.982H54.7a1.751,1.751,0,0,0-1.75,1.75V112.1h-29.5Z"/><path d="M31.667,31.75H54.7A1.749,1.749,0,0,0,56.448,30V23.235a1.75,1.75,0,0,0-1.75-1.75H31.667a1.75,1.75,0,0,0-1.75,1.75V30A1.749,1.749,0,0,0,31.667,31.75Zm1.75-6.765H52.948V28.25H33.417Z"/><path d="M43.183,36.982H31.667a1.75,1.75,0,0,0-1.75,1.75V45.5a1.749,1.749,0,0,0,1.75,1.75H43.183a1.75,1.75,0,0,0,1.75-1.75V38.732A1.751,1.751,0,0,0,43.183,36.982Zm-1.75,6.765H33.417V40.482h8.016Z"/><path d="M43.183,52.48H31.667a1.75,1.75,0,0,0-1.75,1.75v6.764a1.749,1.749,0,0,0,1.75,1.75H43.183a1.75,1.75,0,0,0,1.75-1.75V54.23A1.751,1.751,0,0,0,43.183,52.48Zm-1.75,6.764H33.417V55.98h8.016Z"/><path d="M43.183,67.978H31.667a1.749,1.749,0,0,0-1.75,1.75v6.764a1.749,1.749,0,0,0,1.75,1.75H43.183a1.75,1.75,0,0,0,1.75-1.75V69.728A1.75,1.75,0,0,0,43.183,67.978Zm-1.75,6.764H33.417V71.478h8.016Z"/><path d="M43.183,83.475H31.667a1.749,1.749,0,0,0-1.75,1.75v6.764a1.749,1.749,0,0,0,1.75,1.75H43.183a1.75,1.75,0,0,0,1.75-1.75V85.225A1.75,1.75,0,0,0,43.183,83.475Zm-1.75,6.764H33.417V86.975h8.016Z"/><path d="M64,56.667h7.25A1.75,1.75,0,0,0,73,54.917v-7.25a1.75,1.75,0,0,0-1.75-1.75H64a1.75,1.75,0,0,0-1.75,1.75v7.25A1.75,1.75,0,0,0,64,56.667Zm1.75-7.25H69.5v3.75H65.75Z"/><path d="M78.25,56.667H85.5a1.75,1.75,0,0,0,1.75-1.75v-7.25a1.75,1.75,0,0,0-1.75-1.75H78.25a1.75,1.75,0,0,0-1.75,1.75v7.25A1.75,1.75,0,0,0,78.25,56.667ZM80,49.417h3.75v3.75H80Z"/><path d="M64,71.478h7.25A1.751,1.751,0,0,0,73,69.728v-7.25a1.75,1.75,0,0,0-1.75-1.75H64a1.75,1.75,0,0,0-1.75,1.75v7.25A1.751,1.751,0,0,0,64,71.478Zm1.75-7.25H69.5v3.75H65.75Z"/><path d="M78.25,71.478H85.5a1.751,1.751,0,0,0,1.75-1.75v-7.25a1.75,1.75,0,0,0-1.75-1.75H78.25a1.75,1.75,0,0,0-1.75,1.75v7.25A1.751,1.751,0,0,0,78.25,71.478ZM80,64.228h3.75v3.75H80Z"/><path d="M64,86.288h7.25A1.75,1.75,0,0,0,73,84.538v-7.25a1.75,1.75,0,0,0-1.75-1.75H64a1.75,1.75,0,0,0-1.75,1.75v7.25A1.75,1.75,0,0,0,64,86.288Zm1.75-7.25H69.5v3.75H65.75Z"/><path d="M78.25,86.288H85.5a1.75,1.75,0,0,0,1.75-1.75v-7.25a1.75,1.75,0,0,0-1.75-1.75H78.25a1.75,1.75,0,0,0-1.75,1.75v7.25A1.75,1.75,0,0,0,78.25,86.288ZM80,79.038h3.75v3.75H80Z"/><path d="M64,101.1h7.25A1.751,1.751,0,0,0,73,99.349V92.1a1.75,1.75,0,0,0-1.75-1.75H64a1.75,1.75,0,0,0-1.75,1.75v7.25A1.751,1.751,0,0,0,64,101.1Zm1.75-7.25H69.5V97.6H65.75Z"/><path d="M78.25,101.1H85.5a1.751,1.751,0,0,0,1.75-1.75V92.1a1.75,1.75,0,0,0-1.75-1.75H78.25A1.75,1.75,0,0,0,76.5,92.1v7.25A1.751,1.751,0,0,0,78.25,101.1ZM80,93.849h3.75V97.6H80Z"/></svg>