<?xml version="1.0" encoding="utf-8"?>
<!-- Generator: Adobe Illustrator 16.0.0, SVG Export Plug-In . SVG Version: 6.00 Build 0)  -->
<!DOCTYPE svg PUBLIC "-//W3C//DTD SVG 1.1//EN" "http://www.w3.org/Graphics/SVG/1.1/DTD/svg11.dtd">
<svg version="1.1" xmlns="http://www.w3.org/2000/svg" xmlns:xlink="http://www.w3.org/1999/xlink" x="0px" y="0px" width="64px"
	 height="64px" viewBox="0 0 64 64" enable-background="new 0 0 64 64" xml:space="preserve">
<g id="_x35_0">
</g>
<g id="_x34_9">
</g>
<g id="_x34_8">
</g>
<g id="_x34_7">
	<g>
		<g>
			<path fill="#656D78" d="M26,60.01h12c0,1.66-1.34,3-3,3h-6C27.34,63.01,26,61.67,26,60.01z"/>
		</g>
		<g>
			<polygon fill="#CCD1D9" points="20,55.97 44,55.05 44,58.01 42,60.01 38,60.01 26,60.01 22,60.01 20,58.01 			"/>
		</g>
		<g>
			<polygon fill="#CCD1D9" points="44,51.05 44,55.05 20,55.97 20,51.97 			"/>
		</g>
		<g>
			<polygon fill="#CCD1D9" points="44,48 44,51.05 20,51.97 20,48 			"/>
		</g>
		<g>
			<path fill="#E6E9ED" d="M27,26v0.51c0,1.94-1.57,3.5-3.5,3.5c-1.94,0-3.51-1.56-3.51-3.5H20V26H27z"/>
		</g>
		<g>
			<polygon fill="#FFCE54" points="23.5,15.99 27,26 20,26 			"/>
		</g>
		<g>
			<polygon fill="#FFCE54" points="40.49,15.99 43.99,26 36.99,26 			"/>
		</g>
		<g>
			<path fill="#E6E9ED" d="M43.99,26.51H44c0,1.94-1.57,3.5-3.51,3.5c-1.931,0-3.5-1.56-3.5-3.5V26h7V26.51z"/>
		</g>
		<g>
			<path fill="#FFCE54" d="M20,26v0.51h-0.01c0,1.94,1.569,3.5,3.51,3.5c1.93,0,3.5-1.56,3.5-3.5V26l-3.5-10.01L20,26z M36.99,26
				v0.51c0,1.94,1.569,3.5,3.5,3.5c1.939,0,3.51-1.56,3.51-3.5h-0.01V26l-3.5-10.01L36.99,26z M44,45.78V48H20v-2.22
				C12.83,41.63,8,33.87,8,24.99c0-13.25,10.75-24,24-24s24,10.75,24,24C56,33.87,51.17,41.63,44,45.78z"/>
		</g>
	</g>
	<g>
		<g>
			<path d="M19.998,46.781c-0.17,0-0.342-0.043-0.5-0.135C11.789,42.187,7,33.889,7,24.992c0-13.785,11.215-25,25-25
				s25,11.215,25,25c0,8.896-4.789,17.194-12.499,21.654c-0.481,0.278-1.092,0.112-1.366-0.364c-0.277-0.479-0.113-1.09,0.364-1.366
				C50.593,40.812,55,33.178,55,24.992c0-12.683-10.317-23-23-23s-23,10.317-23,23c0,8.185,4.406,15.819,11.5,19.924
				c0.478,0.276,0.642,0.888,0.364,1.366C20.68,46.603,20.344,46.781,19.998,46.781z"/>
		</g>
		<g>
			<path d="M20,59.012c-0.553,0-1-0.447-1-1V45.779c0-0.553,0.447-1,1-1s1,0.447,1,1v12.232C21,58.564,20.553,59.012,20,59.012z"/>
		</g>
		<g>
			<path d="M44,59.012c-0.553,0-1-0.447-1-1V45.779c0-0.553,0.447-1,1-1s1,0.447,1,1v12.232C45,58.564,44.553,59.012,44,59.012z"/>
		</g>
		<g>
			<path d="M44,49.002H20c-0.553,0-1-0.447-1-1s0.447-1,1-1h24c0.553,0,1,0.447,1,1S44.553,49.002,44,49.002z"/>
		</g>
		<g>
			<path d="M21.997,61.008c-0.256,0-0.512-0.098-0.707-0.293l-1.997-1.996c-0.391-0.391-0.391-1.023,0-1.414s1.023-0.391,1.414,0
				l1.997,1.996c0.391,0.391,0.391,1.023,0,1.414C22.509,60.91,22.253,61.008,21.997,61.008z"/>
		</g>
		<g>
			<path d="M42.003,61.008c-0.256,0-0.512-0.098-0.707-0.293c-0.391-0.391-0.391-1.023,0-1.414l1.997-1.996
				c0.391-0.391,1.023-0.391,1.414,0s0.391,1.023,0,1.414l-1.997,1.996C42.515,60.91,42.259,61.008,42.003,61.008z"/>
		</g>
		<g>
			<path d="M42.003,61.008H21.997c-0.553,0-1-0.447-1-1s0.447-1,1-1h20.006c0.553,0,1,0.447,1,1S42.556,61.008,42.003,61.008z"/>
		</g>
		<g>
			<path d="M29.001,64.008c-2.206,0-4-1.794-4-4c0-0.553,0.447-1,1-1s1,0.447,1,1c0,1.103,0.897,2,2,2c0.553,0,1,0.447,1,1
				S29.554,64.008,29.001,64.008z"/>
		</g>
		<g>
			<path d="M35,64.008c-0.553,0-1-0.447-1-1s0.447-1,1-1c1.103,0,2-0.897,2-2c0-0.553,0.447-1,1-1s1,0.447,1,1
				C39,62.214,37.206,64.008,35,64.008z"/>
		</g>
		<g>
			<path d="M35,64.008h-5.999c-0.553,0-1-0.447-1-1s0.447-1,1-1H35c0.553,0,1,0.447,1,1S35.553,64.008,35,64.008z"/>
		</g>
		<g>
			<path d="M18.998,53.01c-0.534,0-0.978-0.423-0.998-0.962c-0.021-0.552,0.409-1.017,0.961-1.037l26.001-1
				c0.013-0.001,0.025-0.001,0.039-0.001c0.534,0,0.978,0.423,0.998,0.962c0.021,0.552-0.409,1.017-0.961,1.037l-26.001,1
				C19.024,53.01,19.012,53.01,18.998,53.01z"/>
		</g>
		<g>
			<path d="M18.998,57.014c-0.534,0-0.978-0.423-0.998-0.962c-0.021-0.552,0.409-1.017,0.961-1.037l26.001-1
				c0.013-0.001,0.025-0.001,0.039-0.001c0.534,0,0.978,0.423,0.998,0.962c0.021,0.552-0.409,1.017-0.961,1.037l-26.001,1
				C19.024,57.014,19.012,57.014,18.998,57.014z"/>
		</g>
		<g>
			<g>
				<path d="M40.492,16.994H23.497c-0.553,0-1-0.447-1-1s0.447-1,1-1h16.995c0.553,0,1,0.447,1,1S41.045,16.994,40.492,16.994z"/>
			</g>
			<g>
				<path d="M31.994,38c-0.553,0-1-0.447-1-1V13.994c0-0.553,0.447-1,1-1s1,0.447,1,1V37C32.994,37.553,32.547,38,31.994,38z"/>
			</g>
			<g>
				<path d="M38.993,38H24.995c-0.553,0-1-0.447-1-1s0.447-1,1-1h13.998c0.553,0,1,0.447,1,1S39.546,38,38.993,38z"/>
			</g>
			<g>
				<g>
					<path d="M40.492,31.014c-2.483,0-4.503-2.02-4.503-4.502c0-0.553,0.447-1,1-1s1,0.447,1,1c0,1.38,1.123,2.502,2.503,2.502
						s2.503-1.122,2.503-2.502c0-0.553,0.447-1,1-1s1,0.447,1,1C44.995,28.994,42.976,31.014,40.492,31.014z"/>
				</g>
				<g>
					<path d="M43.992,26.996h-7.001c-0.553,0-1-0.447-1-1s0.447-1,1-1h7.001c0.553,0,1,0.447,1,1S44.545,26.996,43.992,26.996z"/>
				</g>
				<g>
					<path d="M36.991,26.996c-0.109,0-0.221-0.018-0.33-0.056c-0.521-0.183-0.796-0.754-0.614-1.274l3.501-10.002
						c0.183-0.521,0.754-0.796,1.274-0.614c0.521,0.183,0.796,0.754,0.614,1.274l-3.502,10.002
						C37.791,26.738,37.404,26.996,36.991,26.996z"/>
				</g>
				<g>
					<path d="M43.992,26.996c-0.413,0-0.8-0.258-0.944-0.67l-3.5-10.002c-0.182-0.521,0.093-1.092,0.614-1.274
						c0.524-0.181,1.092,0.094,1.274,0.614l3.5,10.002c0.182,0.521-0.093,1.092-0.614,1.274
						C44.213,26.979,44.102,26.996,43.992,26.996z"/>
				</g>
				<g>
					<path d="M43.992,27.512c-0.553,0-1-0.447-1-1v-0.516c0-0.553,0.447-1,1-1s1,0.447,1,1v0.516
						C44.992,27.064,44.545,27.512,43.992,27.512z"/>
				</g>
				<g>
					<path d="M36.991,27.512c-0.553,0-1-0.447-1-1v-0.516c0-0.553,0.447-1,1-1s1,0.447,1,1v0.516
						C37.991,27.064,37.544,27.512,36.991,27.512z"/>
				</g>
			</g>
			<g>
				<g>
					<path d="M23.497,31.014c-2.483,0-4.503-2.02-4.503-4.502c0-0.553,0.447-1,1-1s1,0.447,1,1c0,1.38,1.123,2.502,2.503,2.502
						S26,27.892,26,26.512c0-0.553,0.447-1,1-1s1,0.447,1,1C28,28.994,25.98,31.014,23.497,31.014z"/>
				</g>
				<g>
					<path d="M26.997,26.996h-7.001c-0.553,0-1-0.447-1-1s0.447-1,1-1h7.001c0.553,0,1,0.447,1,1S27.55,26.996,26.997,26.996z"/>
				</g>
				<g>
					<path d="M19.996,26.996c-0.109,0-0.221-0.018-0.33-0.056c-0.521-0.183-0.796-0.754-0.614-1.274l3.502-10.002
						c0.182-0.521,0.751-0.796,1.273-0.614c0.521,0.183,0.796,0.754,0.614,1.274L20.94,26.326
						C20.796,26.738,20.409,26.996,19.996,26.996z"/>
				</g>
				<g>
					<path d="M26.997,26.996c-0.413,0-0.8-0.258-0.944-0.67l-3.5-10.002c-0.182-0.521,0.093-1.092,0.614-1.274
						c0.523-0.181,1.092,0.094,1.274,0.614l3.5,10.002c0.182,0.521-0.093,1.092-0.614,1.274
						C27.218,26.979,27.106,26.996,26.997,26.996z"/>
				</g>
				<g>
					<path d="M26.997,27.512c-0.553,0-1-0.447-1-1v-0.516c0-0.553,0.447-1,1-1s1,0.447,1,1v0.516
						C27.997,27.064,27.55,27.512,26.997,27.512z"/>
				</g>
				<g>
					<path d="M19.996,27.512c-0.553,0-1-0.447-1-1v-0.516c0-0.553,0.447-1,1-1s1,0.447,1,1v0.516
						C20.996,27.064,20.549,27.512,19.996,27.512z"/>
				</g>
			</g>
		</g>
	</g>
</g>
<g id="_x34_6">
</g>
<g id="_x34_5">
</g>
<g id="_x34_4">
</g>
<g id="_x34_3">
</g>
<g id="_x34_2">
</g>
<g id="_x34_1">
</g>
<g id="_x34_0">
</g>
<g id="_x33_9">
</g>
<g id="_x33_8">
</g>
<g id="_x33_7">
</g>
<g id="_x33_6">
</g>
<g id="_x33_5">
</g>
<g id="_x33_4">
</g>
<g id="_x33_3">
</g>
<g id="_x33_2">
</g>
<g id="_x33_1">
</g>
<g id="_x33_0">
</g>
<g id="_x32_9">
</g>
<g id="_x32_8">
</g>
<g id="_x32_7">
</g>
<g id="_x32_6">
</g>
<g id="_x32_5">
</g>
<g id="_x32_4">
</g>
<g id="_x32_3">
</g>
<g id="_x32_2">
</g>
<g id="_x32_1">
</g>
<g id="_x32_0">
</g>
<g id="_x31_9">
</g>
<g id="_x31_8">
</g>
<g id="_x31_7">
</g>
<g id="_x31_6">
</g>
<g id="_x31_5">
</g>
<g id="_x31_4">
</g>
<g id="_x31_3">
</g>
<g id="_x31_2">
</g>
<g id="_x31_1">
</g>
<g id="_x31_0">
</g>
<g id="_x39_">
</g>
<g id="_x38_">
</g>
<g id="_x37_">
</g>
<g id="_x36_">
</g>
<g id="_x35_">
</g>
<g id="_x34_">
</g>
<g id="_x33_">
</g>
<g id="_x32_">
</g>
<g id="_x31_">
</g>
</svg>
