<?xml version="1.0" encoding="utf-8"?>
<!-- Generator: Adobe Illustrator 16.0.0, SVG Export Plug-In . SVG Version: 6.00 Build 0)  -->
<!DOCTYPE svg PUBLIC "-//W3C//DTD SVG 1.1//EN" "http://www.w3.org/Graphics/SVG/1.1/DTD/svg11.dtd">
<svg version="1.1" id="Layer_1" xmlns="http://www.w3.org/2000/svg" xmlns:xlink="http://www.w3.org/1999/xlink" x="0px" y="0px"
	 width="512px" height="512px" viewBox="0 0 512 512" enable-background="new 0 0 512 512" xml:space="preserve">
<g id="_x31_3._handcuffs_x2C__law_x2C__police_x2C__court_x2C__jurisprudence">
	<g>
		<g>
			<circle fill="#656D78" cx="220.186" cy="173.558" r="15.996"/>
		</g>
		<g opacity="0.2">
			<path d="M231.488,184.875l-22.619-22.619c-2.89,2.897-4.679,6.889-4.679,11.302c0,8.833,7.162,15.995,15.996,15.995
				C224.599,189.553,228.594,187.765,231.488,184.875z"/>
		</g>
		<g>
			<path fill="#AAB2BD" d="M59.019,368.658c1.199-1.195,1.999-2.562,2.636-3.999c0.641-1.602,0.961-3.358,0.801-5.115l15.516,5.92
				c29.832,10.95,64.623,4.476,88.457-19.44c18.155-18.073,26.235-42.465,24.314-66.138l-2-24.709l13.356,13.352l4.561,4.554v22.635
				l13.516,24.876l-17.277-5.279c-4.557,15.434-12.957,29.914-25.114,42.066c-29.031,29.031-71.5,36.475-107.33,22.314h-0.32
				l-19.515-7.514C53.657,372.181,56.699,370.978,59.019,368.658z"/>
		</g>
		<g>
			<path fill="#656D78" d="M214.574,224.458c-3.198-3.117-3.198-8.154,0-11.356c3.12-3.116,8.158-3.116,11.278,0
				c3.12,3.202,3.12,8.24,0,11.356C222.732,227.583,217.694,227.583,214.574,224.458z"/>
		</g>
		<g>
			<path fill="#CCD1D9" d="M225.853,224.458c3.12-3.117,3.12-8.154,0-11.356c-3.12-3.116-8.158-3.116-11.278,0
				c-3.198,3.202-3.198,8.24,0,11.356C217.694,227.583,222.732,227.583,225.853,224.458z M50.54,230.136
				c-31.194,31.195-31.194,81.819,0,113.091l8.479,8.475c2.155,2.163,3.358,4.959,3.437,7.842c0.16,1.757-0.16,3.514-0.801,5.115
				c-0.637,1.438-1.437,2.804-2.636,3.999c-2.32,2.319-5.362,3.522-8.4,3.522H50.54c-3.12,0-6.158-1.125-8.478-3.522l-8.478-8.475
				c-40.63-40.63-40.63-106.452,0-147.082c25.993-25.993,62.382-35.35,95.892-27.993l32.554-24.47l12.958-9.677
				c3.519-2.078,8.154-3.124,11.274,0l59.343,59.343c3.121,3.117,2.082,7.756,0,11.356l-36.708,53.662l-2.238-2.242l-4.561-4.554
				l-13.356-13.352l-25.114-25.04C132.437,198.872,81.731,198.872,50.54,230.136z"/>
		</g>
		<g opacity="0.7">
			<g>
				<path fill="#FFFFFF" d="M41.582,221.1c25.993-25.993,62.381-35.35,95.892-27.993l32.554-24.47l12.958-9.677
					c3.519-2.078,8.154-3.125,11.274,0l-7.998-7.998c-3.12-3.124-7.756-2.078-11.274,0l-12.958,9.677l-32.554,24.47
					c-33.51-7.357-69.899,2-95.892,27.993c-40.63,40.63-40.63,106.452,0,147.082l7.963,7.959
					C0.956,327.513,0.964,261.714,41.582,221.1z"/>
			</g>
			<g>
				<path fill="#FFFFFF" d="M58.503,351.187c0.016,0.016,0.023,0.023,0.035,0.039l0.488,0.492c-0.004-0.008-0.004-0.016-0.004-0.016
					L58.503,351.187z"/>
			</g>
		</g>
		<g opacity="0.2">
			<g>
				<path d="M62.455,359.544c0.16,1.757-0.16,3.514-0.801,5.115c-0.637,1.438-1.437,2.804-2.636,3.999
					c-2.32,2.319-5.362,3.522-8.4,3.522l11.345,4.366c0.945-0.664,1.863-1.391,2.702-2.226c1.754-1.75,3.164-3.852,4.417-6.694
					c0.68-1.702,1.039-3.421,1.23-5.084L62.455,359.544z"/>
			</g>
			<g>
				<polygon points="206.658,273.082 202.097,268.528 188.741,255.176 189.741,267.521 206.658,284.415 				"/>
			</g>
		</g>
		<g opacity="0.2">
			<g>
				<path d="M57.277,369.822L57.277,369.822c-0.976,0.679-2.011,1.233-3.078,1.647C55.305,371.11,56.293,370.509,57.277,369.822z"/>
			</g>
			<g>
				<path d="M206.658,295.717v-11.302l-7.998-7.99l0.734,18.051l8.994,15.823l-10.825-2.171
					c-4.558,15.434-12.673,31.437-24.829,43.59c-28.129,28.125-71.805,33.592-106.901,21.174c-0.391,0.477-0.742,1-1.168,1.43
					c-0.839,0.835-1.757,1.562-2.702,2.226l-11.345-4.366l19.515,7.514h0.32c35.83,14.16,78.299,6.717,107.33-22.314
					c12.157-12.152,20.557-26.633,25.114-42.066l17.277,5.279L206.658,295.717z"/>
			</g>
		</g>
		<g opacity="0.2">
			<path d="M245.605,210.306L194.26,158.96c-3.121-3.125-7.756-2.078-11.274,0l-2.707,2.022l49.327,49.323
				c3.124,3.117,2.085,7.756,0,11.356l-30.211,44.164l2.703,2.702l4.561,4.554l2.238,2.242l36.708-53.662
				C247.687,218.062,248.726,213.422,245.605,210.306z"/>
		</g>
	</g>
	<g>
		<g>
			<path fill="#656D78" d="M294.436,153.547c8.834,0,15.996,7.17,15.996,15.996c0,8.841-7.162,15.996-15.996,15.996
				s-15.996-7.155-15.996-15.996C278.439,160.717,285.602,153.547,294.436,153.547z"/>
		</g>
		<g opacity="0.2">
			<path d="M305.753,158.25l-22.619,22.619c2.897,2.89,6.89,4.67,11.302,4.67c8.834,0,15.996-7.155,15.996-15.996
				C310.432,165.138,308.643,161.139,305.753,158.25z"/>
		</g>
		<g>
			<path fill="#AAB2BD" d="M489.539,330.716c-1.194-1.203-2.562-2-3.998-2.641c-1.602-0.641-3.359-0.961-5.116-0.797l5.921-15.519
				c10.949-29.828,4.475-64.62-19.44-88.45c-18.073-18.159-42.466-26.243-66.139-24.321l-24.712,1.999l13.355-13.355l4.554-4.562
				h22.634l24.877-13.512l-5.28,17.276c15.434,4.562,29.914,12.958,42.067,25.118c29.031,29.023,36.475,71.493,22.314,107.327v0.312
				l-7.514,19.519C493.062,336.073,491.859,333.027,489.539,330.716z"/>
		</g>
		<g>
			<path fill="#656D78" d="M345.336,175.159c-3.116,3.194-8.154,3.194-11.356,0c-3.116-3.116-3.116-8.162,0-11.278
				c3.202-3.116,8.24-3.116,11.356,0C348.46,166.997,348.46,172.042,345.336,175.159z"/>
		</g>
		<g>
			<path fill="#CCD1D9" d="M345.336,163.88c-3.116-3.116-8.154-3.116-11.356,0c-3.116,3.117-3.116,8.162,0,11.278
				c3.202,3.194,8.24,3.194,11.356,0C348.46,172.042,348.46,166.997,345.336,163.88z M351.015,339.189
				c31.194,31.194,81.821,31.194,113.095,0l8.474-8.474c2.163-2.156,4.96-3.359,7.842-3.438c1.757-0.164,3.515,0.156,5.116,0.797
				c1.437,0.641,2.804,1.438,3.998,2.641c2.32,2.312,3.523,5.357,3.523,8.396v0.078c0,3.116-1.125,6.163-3.523,8.475l-8.474,8.481
				c-40.63,40.63-106.456,40.63-147.086,0c-25.993-25.992-35.35-62.381-27.992-95.892l-24.47-32.554l-9.678-12.95
				c-2.077-3.522-3.124-8.154,0-11.278l59.344-59.343c3.116-3.125,7.756-2.078,11.356,0l53.665,36.709l-2.241,2.233l-4.554,4.562
				l-13.355,13.355l-25.04,25.118C319.749,257.302,319.749,308.003,351.015,339.189z"/>
		</g>
		<g opacity="0.7">
			<g>
				<path fill="#FFFFFF" d="M341.978,348.148c-25.993-25.993-35.35-62.382-27.992-95.893l-24.47-32.554l-9.678-12.95
					c-2.077-3.522-3.124-8.154,0-11.278l-7.998,7.998c-3.124,3.124-2.077,7.755,0,11.278l9.678,12.95l24.47,32.554
					c-7.357,33.511,1.999,69.899,27.992,95.892c40.63,40.63,106.456,40.63,147.086,0l7.959-7.966
					C448.395,388.778,382.592,388.763,341.978,348.148z"/>
			</g>
			<g>
				<path fill="#FFFFFF" d="M472.067,331.23c0.016-0.016,0.023-0.031,0.039-0.039l0.492-0.491c-0.008,0.008-0.016,0.008-0.016,0.016
					L472.067,331.23z"/>
			</g>
		</g>
		<g opacity="0.2">
			<g>
				<path d="M480.425,327.278c1.757-0.164,3.515,0.156,5.116,0.797c1.437,0.641,2.804,1.438,3.998,2.641
					c2.32,2.312,3.523,5.357,3.523,8.396l4.365-11.349c-0.664-0.938-1.39-1.858-2.226-2.702c-1.749-1.749-3.851-3.155-6.693-4.413
					c-1.703-0.68-3.421-1.039-5.085-1.227L480.425,327.278z"/>
			</g>
			<g>
				<polygon points="393.964,183.071 389.41,187.632 376.055,200.988 388.402,199.988 405.297,183.071 				"/>
			</g>
		</g>
		<g opacity="0.2">
			<g>
				<path d="M490.703,332.449L490.703,332.449c0.68,0.984,1.234,2.015,1.648,3.077C491.992,334.425,491.391,333.434,490.703,332.449
					z"/>
			</g>
			<g>
				<path d="M416.598,183.071h-11.301l-7.99,7.998l18.05-0.734l15.823-8.99l-2.171,10.825c15.434,4.553,31.437,12.676,43.59,24.83
					c28.126,28.133,33.593,71.805,21.175,106.897c0.476,0.391,0.999,0.742,1.429,1.164c0.836,0.844,1.562,1.765,2.226,2.702
					l-4.365,11.349l7.514-19.519v-0.312c14.16-35.834,6.717-78.303-22.314-107.327c-12.153-12.161-26.634-20.557-42.067-25.118
					l5.28-17.276L416.598,183.071z"/>
			</g>
		</g>
		<g opacity="0.2">
			<path d="M331.184,144.128l-51.346,51.346c-3.124,3.124-2.077,7.755,0,11.278l2.023,2.703l49.322-49.331
				c3.116-3.124,7.756-2.077,11.356,0l44.168,30.211l2.702-2.702l4.554-4.562l2.241-2.233l-53.665-36.709
				C338.939,142.05,334.3,141.004,331.184,144.128z"/>
		</g>
	</g>
	<g>
		<g>
			<path fill="#3A3847" d="M481.714,343.235c-2.211,0-4.038-1.789-4.038-3.999s1.749-3.999,3.952-3.999h0.086
				c2.202,0,3.999,1.789,3.999,3.999S483.916,343.235,481.714,343.235z"/>
		</g>
		<g>
			<path fill="#3A3847" d="M374.07,184.711c-2.21,0-4.037-1.789-4.037-3.999c0-2.211,1.749-3.999,3.951-3.999h0.086
				c2.203,0,3.999,1.788,3.999,3.999C378.069,182.922,376.273,184.711,374.07,184.711z"/>
		</g>
		<g>
			<path fill="#3A3847" d="M295.076,207.509c-2.211,0-4.038-1.788-4.038-3.999s1.75-3.999,3.952-3.999h0.086
				c2.203,0,3.999,1.789,3.999,3.999S297.279,207.509,295.076,207.509z"/>
		</g>
		<g>
			<path fill="#3A3847" d="M317.695,230.128c-2.211,0-4.038-1.789-4.038-3.999c0-2.21,1.749-3.999,3.952-3.999h0.086
				c2.202,0,3.999,1.789,3.999,3.999C321.694,228.34,319.897,230.128,317.695,230.128z"/>
		</g>
		<g>
			<path fill="#3A3847" d="M334.675,213.165c-2.21,0-4.038-1.789-4.038-3.999c0-2.21,1.75-3.999,3.952-3.999h0.086
				c2.202,0,3.999,1.789,3.999,3.999C338.674,211.375,336.877,213.165,334.675,213.165z"/>
		</g>
		<g>
			<path fill="#3A3847" d="M51.724,364.19c-2.207,0-4.038-1.788-4.038-3.999c0-2.21,1.75-3.999,3.96-3.999h0.078
				c2.21,0,3.999,1.789,3.999,3.999C55.723,362.402,53.934,364.19,51.724,364.19z"/>
		</g>
		<g>
			<path fill="#3A3847" d="M210.243,256.567c-2.206,0-4.038-1.789-4.038-3.999c0-2.21,1.75-3.999,3.959-3.999h0.078
				c2.211,0,3.999,1.789,3.999,3.999C214.242,254.778,212.454,256.567,210.243,256.567z"/>
		</g>
		<g>
			<path fill="#3A3847" d="M187.453,177.572c-2.207,0-4.038-1.789-4.038-3.999c0-2.211,1.749-3.999,3.959-3.999h0.078
				c2.21,0,3.999,1.788,3.999,3.999C191.452,175.784,189.663,177.572,187.453,177.572z"/>
		</g>
		<g>
			<path fill="#3A3847" d="M164.826,200.191c-2.207,0-4.038-1.788-4.038-3.999s1.75-3.999,3.96-3.999h0.078
				c2.21,0,3.999,1.789,3.999,3.999S167.036,200.191,164.826,200.191z"/>
		</g>
		<g>
			<path fill="#3A3847" d="M181.79,217.156c-2.206,0-4.038-1.789-4.038-3.999c0-2.21,1.75-3.999,3.96-3.999h0.078
				c2.21,0,3.999,1.789,3.999,3.999C185.789,215.367,184,217.156,181.79,217.156z"/>
		</g>
		<g>
			<g>
				<g>
					<path fill="#3A3847" d="M407.944,390.652c-28.836,0-55.946-11.231-76.339-31.624c-26.165-26.165-37.053-63.397-29.117-99.579
						c0.469-2.147,2.585-3.507,4.765-3.046c2.155,0.469,3.522,2.601,3.046,4.764c-7.35,33.504,2.733,67.979,26.961,92.206
						c18.878,18.886,43.98,29.281,70.685,29.281s51.814-10.396,70.7-29.281c1.562-1.562,4.092-1.562,5.654,0
						c1.562,1.562,1.562,4.093,0,5.655C463.898,379.421,436.788,390.652,407.944,390.652z"/>
				</g>
				<g>
					<path fill="#3A3847" d="M407.944,366.62c-21.502,0-43.004-8.186-59.375-24.557c-32.741-32.741-32.741-86.02,0-118.761
						c1.562-1.562,4.093-1.562,5.655,0c1.562,1.562,1.562,4.093,0,5.655c-29.625,29.625-29.625,77.827,0,107.452
						c29.617,29.617,77.822,29.617,107.439,0c1.562-1.562,4.093-1.562,5.655,0c1.562,1.562,1.562,4.093,0,5.654
						C450.948,358.435,429.446,366.62,407.944,366.62z"/>
				</g>
			</g>
			<g>
				<g>
					<path fill="#3A3847" d="M500.982,323.351c-0.492,0-0.984-0.086-1.469-0.281c-2.055-0.805-3.062-3.125-2.25-5.187
						c14.004-35.576,5.585-76.031-21.463-103.063c-11.246-11.258-25.22-19.596-40.395-24.114c-2.117-0.629-3.32-2.854-2.695-4.972
						c0.625-2.112,2.844-3.323,4.976-2.69c16.448,4.894,31.585,13.926,43.77,26.122c29.297,29.281,38.427,73.102,23.243,111.654
						C504.082,322.39,502.575,323.351,500.982,323.351z"/>
				</g>
				<g>
					<path fill="#3A3847" d="M486.751,315.767c-0.46,0-0.929-0.078-1.382-0.25c-2.07-0.758-3.133-3.062-2.367-5.132
						c10.748-29.195,3.484-62.261-18.51-84.255c-16.605-16.604-39.561-25.063-63.022-23.146c-2.141,0.16-4.132-1.464-4.304-3.667
						c-0.18-2.199,1.461-4.127,3.663-4.307c25.759-2.039,51.057,7.201,69.317,25.466c24.188,24.188,32.179,60.566,20.354,92.674
						C489.906,314.767,488.376,315.767,486.751,315.767z"/>
				</g>
			</g>
			<g>
				<path fill="#3A3847" d="M489.953,351.718c-1.022,0-2.038-0.391-2.819-1.164c-1.569-1.562-1.569-4.093-0.016-5.654
					c3.116-3.125,3.116-8.201,0.008-11.317c-3.116-3.116-8.192-3.124-11.325,0c-1.562,1.562-4.092,1.562-5.654,0
					c-1.562-1.562-1.562-4.093,0-5.655c6.232-6.248,16.402-6.248,22.635,0c6.225,6.232,6.225,16.379,0.008,22.611
					C492.008,351.327,490.977,351.718,489.953,351.718z"/>
			</g>
			<g>
				<path fill="#3A3847" d="M464.492,343.235c-1.023,0-2.047-0.391-2.828-1.172c-1.562-1.562-1.562-4.092,0-5.654l8.482-8.482
					c1.562-1.562,4.093-1.562,5.654,0c1.562,1.562,1.562,4.093,0,5.655l-8.481,8.481
					C466.538,342.845,465.515,343.235,464.492,343.235z"/>
			</g>
			<g>
				<path fill="#3A3847" d="M481.472,360.199c-1.023,0-2.047-0.39-2.827-1.171c-1.562-1.562-1.562-4.093,0-5.655l8.481-8.481
					c1.562-1.562,4.093-1.562,5.655,0c1.562,1.562,1.562,4.092,0,5.654l-8.482,8.482
					C483.518,359.81,482.494,360.199,481.472,360.199z"/>
			</g>
			<g>
				<path fill="#3A3847" d="M306.394,264.304c-1.211,0-2.413-0.551-3.194-1.59l-34.179-45.492c-1.327-1.766-0.976-4.272,0.789-5.601
					c1.78-1.316,4.28-0.972,5.601,0.797l34.178,45.485c1.328,1.772,0.977,4.271-0.789,5.6
					C308.072,264.046,307.229,264.304,306.394,264.304z"/>
			</g>
			<g>
				<path fill="#3A3847" d="M396.635,184.891c-0.781,0-1.57-0.227-2.257-0.699l-53.72-36.764c-1.828-1.246-2.289-3.737-1.047-5.557
					c1.266-1.82,3.757-2.277,5.561-1.042l53.721,36.763c1.827,1.246,2.288,3.737,1.046,5.557
					C399.158,184.282,397.908,184.891,396.635,184.891z"/>
			</g>
			<g>
				<path fill="#3A3847" d="M272.215,218.819c-1.382,0-2.726-0.718-3.468-2.007c-3.538-6.163-3.296-12.192,0.641-16.129
					c1.562-1.562,4.093-1.562,5.655,0c1.562,1.562,1.562,4.093,0,5.655c-1.766,1.769-0.141,5.127,0.64,6.49
					c1.102,1.917,0.438,4.362-1.476,5.459C273.582,218.647,272.895,218.819,272.215,218.819z"/>
			</g>
			<g>
				<path fill="#3A3847" d="M342.915,148.127c-0.68,0-1.367-0.172-1.999-0.535c-1.352-0.781-4.694-2.41-6.507-0.629
					c-1.562,1.554-4.093,1.554-5.654-0.016c-1.555-1.566-1.555-4.097,0.016-5.655c3.952-3.937,9.981-4.178,16.144-0.628
					c1.914,1.101,2.57,3.546,1.469,5.459C345.641,147.409,344.297,148.127,342.915,148.127z"/>
			</g>
			<g>
				<path fill="#3A3847" d="M272.215,207.509c-1.023,0-2.046-0.39-2.827-1.171c-1.562-1.562-1.562-4.093,0-5.655l59.375-59.382
					c1.562-1.562,4.093-1.562,5.654,0c1.562,1.562,1.562,4.093,0,5.655l-59.374,59.383
					C274.262,207.119,273.238,207.509,272.215,207.509z"/>
			</g>
			<g>
				<path fill="#3A3847" d="M351.396,230.128c-1.022,0-2.046-0.391-2.827-1.171c-1.562-1.562-1.562-4.093,0-5.655l45.238-45.238
					c1.562-1.562,4.093-1.562,5.654,0c1.562,1.562,1.562,4.092,0,5.655l-45.237,45.238
					C353.443,229.738,352.42,230.128,351.396,230.128z"/>
			</g>
			<g>
				<path fill="#3A3847" d="M417.035,187.132c-1.413,0-2.788-0.754-3.506-2.085c-1.062-1.937-0.344-4.366,1.593-5.424l24.837-13.551
					c1.945-1.062,4.374-0.344,5.421,1.597c1.062,1.938,0.343,4.366-1.594,5.425l-24.837,13.551
					C418.34,186.976,417.684,187.132,417.035,187.132z"/>
			</g>
			<g>
				<path fill="#3A3847" d="M436.562,190.889c-0.391,0-0.781-0.055-1.171-0.176c-2.117-0.648-3.297-2.886-2.648-4.995l5.312-17.308
					c0.64-2.12,2.874-3.315,4.99-2.651c2.117,0.648,3.296,2.886,2.647,4.995l-5.311,17.308
					C439.857,189.784,438.272,190.889,436.562,190.889z"/>
			</g>
			<g>
				<path fill="#3A3847" d="M272.215,241.438c-1.023,0-2.046-0.391-2.827-1.172c-1.562-1.562-1.562-4.092,0-5.654l9.7-9.701
					c1.562-1.562,4.093-1.562,5.655,0c1.562,1.562,1.562,4.093,0,5.655l-9.7,9.7C274.262,241.047,273.238,241.438,272.215,241.438z"
					/>
			</g>
			<g>
				<path fill="#3A3847" d="M340.088,181.575c-3.211,0-6.218-1.246-8.482-3.511c-2.266-2.253-3.515-5.264-3.522-8.47
					c0-3.21,1.249-6.229,3.522-8.498c4.522-4.526,12.41-4.542,16.964,0c4.679,4.683,4.679,12.29,0,16.968
					C346.297,180.33,343.29,181.575,340.088,181.575z M340.088,165.58c-1.07,0-2.07,0.418-2.828,1.175
					c-0.757,0.761-1.179,1.765-1.179,2.835c0,1.062,0.422,2.062,1.171,2.812c1.523,1.515,4.14,1.519,5.663,0.004
					c1.562-1.554,1.562-4.093,0-5.651C342.157,165.998,341.149,165.58,340.088,165.58z"/>
			</g>
			<g>
				<path fill="#3A3847" d="M283.524,184.891c-1.022,0-2.046-0.39-2.827-1.171c-3.78-3.776-5.857-8.799-5.857-14.141
					c0-5.343,2.077-10.361,5.857-14.137c3.78-3.772,8.803-5.854,14.145-5.854h0.008c5.342,0.004,10.356,2.086,14.121,5.862
					c1.562,1.562,1.562,4.096,0,5.654c-1.562,1.555-4.093,1.562-5.654-0.008c-2.258-2.261-5.265-3.507-8.467-3.511
					c-0.008,0-0.008,0-0.008,0c-3.21,0-6.225,1.25-8.49,3.515c-2.265,2.265-3.514,5.276-3.514,8.479
					c0,3.206,1.249,6.217,3.514,8.486c1.562,1.562,1.562,4.092,0,5.655C285.571,184.5,284.548,184.891,283.524,184.891z"/>
			</g>
			<g>
				<g>
					<path fill="#3A3847" d="M34.514,364.19c-1.023,0-2.047-0.391-2.828-1.172c-20.393-20.393-31.628-47.51-31.628-76.346
						c0-28.832,11.235-55.951,31.628-76.344c26.161-26.161,63.397-37.029,99.571-29.102c2.16,0.473,3.522,2.605,3.05,4.76
						c-0.477,2.16-2.608,3.511-4.76,3.05c-33.502-7.334-67.978,2.722-92.206,26.946c-38.978,38.981-38.978,102.399,0,141.38
						c1.562,1.562,1.562,4.093,0,5.654C36.56,363.8,35.536,364.19,34.514,364.19z"/>
				</g>
				<g>
					<path fill="#3A3847" d="M51.485,347.227c-1.023,0-2.046-0.391-2.827-1.172c-32.745-32.741-32.745-86.02,0-118.761
						c32.741-32.741,86.016-32.741,118.757,0c1.562,1.562,1.562,4.093,0,5.654c-1.562,1.562-4.093,1.562-5.654,0
						c-29.625-29.625-77.823-29.625-107.448,0c-29.625,29.625-29.625,77.828,0,107.453c1.562,1.562,1.562,4.093,0,5.654
						C53.532,346.836,52.509,347.227,51.485,347.227z"/>
				</g>
			</g>
			<g>
				<g>
					<path fill="#3A3847" d="M107.986,390.676c-12.805,0-25.712-2.366-38.08-7.24c-2.054-0.805-3.065-3.124-2.257-5.187
						c0.812-2.046,3.132-3.085,5.186-2.249c35.568,13.988,76.019,5.577,103.062-21.463c11.259-11.255,19.596-25.228,24.114-40.403
						c0.625-2.109,2.858-3.304,4.972-2.694c2.116,0.632,3.323,2.858,2.69,4.976c-4.893,16.44-13.926,31.585-26.122,43.776
						C161.663,380.077,135.068,390.676,107.986,390.676z"/>
				</g>
				<g>
					<path fill="#3A3847" d="M107.884,374.618c-10.189,0-20.456-1.766-30.32-5.397c-2.07-0.758-3.132-3.062-2.371-5.132
						c0.761-2.069,3.073-3.14,5.135-2.366c29.199,10.731,62.284,3.483,84.259-18.495c16.601-16.605,25.04-39.575,23.154-63.03
						c-0.176-2.202,1.464-4.132,3.667-4.304c2.273-0.164,4.132,1.461,4.307,3.664c2.074,25.797-7.209,51.064-25.474,69.324
						C153.493,365.636,130.882,374.618,107.884,374.618z"/>
				</g>
			</g>
			<g>
				<path fill="#3A3847" d="M51.481,376.188c-4.272,0-8.291-1.663-11.31-4.687c-1.558-1.562-1.558-4.1,0.008-5.654
					c1.555-1.562,4.093-1.562,5.655,0c3.015,3.03,8.283,3.015,11.306,0c3.116-3.116,3.112-8.193-0.004-11.31
					c-1.558-1.562-1.558-4.101,0.008-5.655c1.554-1.562,4.092-1.562,5.655,0c6.229,6.241,6.229,16.387-0.004,22.619
					C59.772,374.524,55.758,376.188,51.481,376.188z"/>
			</g>
			<g>
				<path fill="#3A3847" d="M59.968,355.708c-1.023,0-2.047-0.39-2.828-1.171l-8.482-8.482c-1.562-1.562-1.562-4.093,0-5.654
					c1.562-1.562,4.093-1.562,5.654,0l8.482,8.481c1.562,1.562,1.562,4.093,0,5.655C62.014,355.318,60.99,355.708,59.968,355.708z"
					/>
			</g>
			<g>
				<path fill="#3A3847" d="M43.003,372.673c-1.023,0-2.046-0.391-2.827-1.172l-8.49-8.482c-1.562-1.562-1.562-4.092,0-5.654
					s4.092-1.562,5.655,0l8.49,8.482c1.562,1.562,1.562,4.093,0,5.654C45.05,372.282,44.026,372.673,43.003,372.673z"/>
			</g>
			<g>
				<path fill="#3A3847" d="M130.405,189.132c-1.214,0-2.413-0.551-3.202-1.597c-1.324-1.766-0.968-4.272,0.797-5.601l45.496-34.186
					c1.765-1.32,4.272-0.969,5.6,0.796c1.324,1.765,0.969,4.272-0.797,5.6l-45.495,34.186
					C132.085,188.87,131.241,189.132,130.405,189.132z"/>
			</g>
			<g>
				<path fill="#3A3847" d="M209.83,279.362c-0.777,0-1.562-0.227-2.253-0.695c-1.824-1.25-2.288-3.741-1.043-5.562l36.756-53.724
					c1.242-1.82,3.733-2.292,5.558-1.043c1.823,1.246,2.288,3.733,1.042,5.558l-36.756,53.724
					C212.36,278.753,211.106,279.362,209.83,279.362z"/>
			</g>
			<g>
				<path fill="#3A3847" d="M187.215,154.954c-1.023,0-2.047-0.391-2.828-1.172c-1.781-1.773-5.143-0.148-6.499,0.633
					c-1.917,1.102-4.362,0.445-5.459-1.477c-1.102-1.917-0.438-4.362,1.476-5.459c6.159-3.538,12.188-3.296,16.137,0.648
					c1.562,1.562,1.562,4.092,0,5.654C189.261,154.563,188.238,154.954,187.215,154.954z"/>
			</g>
			<g>
				<path fill="#3A3847" d="M246.585,225.637c-0.683,0-1.37-0.175-2.003-0.542c-1.91-1.109-2.562-3.554-1.449-5.463
					c0.609-1.055,2.464-4.64,0.629-6.475c-1.562-1.562-1.562-4.093,0-5.655c1.562-1.562,4.093-1.562,5.655,0
					c3.964,3.964,4.202,10.001,0.629,16.145C249.303,224.923,247.964,225.637,246.585,225.637z"/>
			</g>
			<g>
				<path fill="#3A3847" d="M246.589,214.328c-1.022,0-2.046-0.391-2.827-1.171l-59.375-59.375c-1.562-1.562-1.562-4.093,0-5.654
					c1.562-1.562,4.092-1.562,5.655,0l59.375,59.374c1.562,1.562,1.562,4.093,0,5.655
					C248.636,213.938,247.612,214.328,246.589,214.328z"/>
			</g>
			<g>
				<path fill="#3A3847" d="M209.833,279.362c-1.023,0-2.046-0.391-2.828-1.172l-45.245-45.243c-1.562-1.562-1.562-4.092,0-5.654
					c1.562-1.562,4.092-1.562,5.654,0l45.246,45.243c1.562,1.562,1.562,4.092,0,5.654
					C211.88,278.972,210.856,279.362,209.833,279.362z"/>
			</g>
			<g>
				<path fill="#3A3847" d="M221.146,324.607c-1.417,0-2.788-0.75-3.515-2.085l-13.559-24.846c-1.059-1.937-0.344-4.365,1.593-5.42
					c1.937-1.07,4.374-0.352,5.428,1.594l13.559,24.845c1.058,1.937,0.343,4.366-1.593,5.42
					C222.451,324.451,221.795,324.607,221.146,324.607z"/>
			</g>
			<g>
				<path fill="#3A3847" d="M221.143,324.607c-0.386,0-0.781-0.055-1.171-0.18l-17.316-5.311c-2.113-0.641-3.3-2.882-2.652-4.991
					c0.648-2.102,2.886-3.312,4.995-2.647l17.315,5.311c2.113,0.641,3.3,2.882,2.651,4.991
					C224.439,323.499,222.854,324.607,221.143,324.607z"/>
			</g>
			<g>
				<path fill="#3A3847" d="M162.979,164.654c-1.023,0-2.046-0.391-2.827-1.171l-9.7-9.708c-1.562-1.562-1.562-4.097,0-5.654
					c1.562-1.562,4.093-1.562,5.654,0l9.701,9.708c1.562,1.562,1.562,4.097,0,5.655
					C165.025,164.263,164.002,164.654,162.979,164.654z"/>
			</g>
			<g>
				<path fill="#3A3847" d="M221.143,230.808c-3.202,0-6.217-1.25-8.481-3.515c-2.266-2.265-3.515-5.28-3.515-8.482
					s1.249-6.217,3.515-8.482c4.53-4.53,12.434-4.53,16.964,0c2.265,2.265,3.515,5.28,3.515,8.482s-1.25,6.217-3.515,8.482
					C227.36,229.558,224.345,230.808,221.143,230.808z M221.143,214.812c-1.065,0-2.069,0.418-2.827,1.172
					c-0.754,0.758-1.171,1.761-1.171,2.827c0,1.066,0.417,2.07,1.171,2.828c1.516,1.507,4.14,1.507,5.655,0
					c0.753-0.757,1.171-1.761,1.171-2.828c0-1.066-0.418-2.069-1.171-2.827C223.213,215.23,222.209,214.812,221.143,214.812z"/>
			</g>
			<g>
				<path fill="#3A3847" d="M232.452,188.882c-1.023,0-2.046-0.391-2.827-1.171c-1.562-1.562-1.562-4.093,0-5.655
					c2.265-2.269,3.515-5.279,3.515-8.485c0-3.203-1.246-6.213-3.515-8.475c-4.538-4.538-12.426-4.534-16.964-0.004
					c-1.562,1.562-4.093,1.562-5.655,0c-1.562-1.562-1.562-4.093,0-5.655c7.795-7.794,20.479-7.794,28.274,0
					c3.776,3.772,5.858,8.791,5.858,14.133c0,5.342-2.082,10.364-5.858,14.141C234.499,188.491,233.476,188.882,232.452,188.882z"/>
			</g>
			<g>
				<path fill="#3A3847" d="M277.87,172.597c-5.116,0-10.239-1.949-14.137-5.838l-11.31-11.313c-7.799-7.799-7.799-20.483,0-28.282
					c7.803-7.791,20.486-7.779,28.273-0.004l11.31,11.313c1.562,1.562,1.562,4.093,0,5.655c-1.562,1.562-4.093,1.562-5.655,0
					l-11.309-11.31c-4.671-4.675-12.294-4.671-16.965,0.004c-4.678,4.674-4.678,12.29,0,16.968l11.31,11.31
					c4.671,4.671,12.294,4.675,16.964-0.004c1.562-1.554,4.093-1.558,5.655,0.004c1.562,1.566,1.562,4.097,0,5.659
					C288.109,170.648,282.985,172.597,277.87,172.597z"/>
			</g>
			<g>
				<path fill="#3A3847" d="M226.798,171.91c-1.023,0-2.047-0.391-2.828-1.167c-3.776-3.776-5.858-8.798-5.858-14.141
					c0-5.342,2.082-10.364,5.858-14.141l11.31-11.313c7.787-7.787,20.471-7.791,28.274-0.004c7.794,7.807,7.794,20.495,0,28.286
					l-11.31,11.31c-1.562,1.562-4.093,1.562-5.655,0c-1.562-1.562-1.562-4.093,0-5.655l11.31-11.31
					c4.675-4.674,4.675-12.29-0.004-16.972c-4.674-4.675-12.286-4.667-16.96,0l-11.31,11.317c-2.269,2.265-3.515,5.275-3.515,8.481
					c0,3.207,1.246,6.217,3.515,8.479c1.562,1.562,1.562,4.093,0.004,5.659C228.848,171.519,227.821,171.91,226.798,171.91z"/>
			</g>
		</g>
	</g>
</g>
</svg>
