<?xml version="1.0" encoding="iso-8859-1"?>
<!-- Generator: Adobe Illustrator 23.0.5, SVG Export Plug-In . SVG Version: 6.00 Build 0)  -->
<svg version="1.1" xmlns="http://www.w3.org/2000/svg" xmlns:xlink="http://www.w3.org/1999/xlink" x="0px" y="0px"
	 viewBox="0 0 492 492" style="enable-background:new 0 0 492 492;" xml:space="preserve">
<g id="Master_Layer_2">
</g>
<g id="Layer_1">
	<g>
		<g>
			<g>
				<g>
					<g>
						<g>
							<path style="fill-rule:evenodd;clip-rule:evenodd;fill:#212121;" d="M181.124,201.512c-12.504,0-22.68-10.176-22.68-22.68
								c0-12.504,10.176-22.68,22.68-22.68c12.504,0,22.68,10.176,22.68,22.68C203.804,191.336,193.628,201.512,181.124,201.512
								L181.124,201.512z M181.124,167.672c-6.144,0-11.16,5.016-11.16,11.16c0,6.144,5.016,11.16,11.16,11.16
								c6.144,0,11.16-5.016,11.16-11.16C192.284,172.688,187.292,167.672,181.124,167.672z"/>
						</g>
						<g>
							<path style="fill-rule:evenodd;clip-rule:evenodd;fill:#212121;" d="M197.468,336.848h-31.92c-3.192,0-5.76-2.568-5.76-5.76
								c0-3.192,2.568-5.76,5.76-5.76h31.896c3.192,0,5.76,2.568,5.76,5.76C203.204,334.28,200.636,336.848,197.468,336.848z"/>
						</g>
						<g>
							<path style="fill-rule:evenodd;clip-rule:evenodd;fill:#212121;" d="M197.468,336.848c-0.12,0-0.24,0-0.336,0
								c-3.168-0.192-5.592-2.904-5.4-6.096l3.12-52.944l1.92-39.84c0.096-1.992,1.224-3.792,2.976-4.776
								c1.752-0.96,3.888-0.96,5.616,0.024l25.8,14.616c0.072,0.024,0.168,0,0.216-0.072l0.504-0.528
								c0.144-0.144,0.192-0.312,0.192-0.528c-0.024-0.192-0.12-0.36-0.288-0.48c-0.096-0.072-0.192-0.144-0.288-0.216
								l-35.784-27.984c-0.744-0.48-1.608-0.744-2.496-0.744h-25.656c-0.96,0-1.896,0.312-2.688,0.864l-35.4,25.584
								c-0.552,0.408-0.696,0.96-0.744,1.248c-0.048,0.288-0.024,0.864,0.408,1.392c0.024,0.024,0.024,0.024,0.048,0.024
								l28.896-13.368c1.728-0.816,3.768-0.696,5.4,0.312c1.632,0.984,2.688,2.736,2.76,4.656l1.92,39.84l3.12,52.944
								c0.192,3.168-2.232,5.904-5.4,6.096c-3.168,0.192-5.904-2.232-6.096-5.4l-3.12-52.968c0-0.024,0-0.048,0-0.072l-1.512-31.344
								l-21.12,9.768c-4.752,2.208-10.416,0.912-13.752-3.12c-2.352-2.832-3.432-6.552-2.952-10.2
								c0.456-3.648,2.448-6.984,5.424-9.12l35.4-25.584c2.76-1.992,6.024-3.048,9.432-3.048l25.632,0
								c3.288,0,6.456,0.984,9.144,2.856c0.096,0.072,0.192,0.144,0.288,0.216l35.832,28.056c2.856,2.04,4.68,5.184,5.04,8.688
								c0.36,3.552-0.864,7.08-3.336,9.672l-0.504,0.528c-3.528,3.672-8.976,4.656-13.56,2.472c-0.12-0.048-0.24-0.12-0.36-0.192
								l-17.952-10.152l-1.464,30.528c0,0.024,0,0.048,0,0.072l-3.12,52.968C203.036,334.472,200.492,336.848,197.468,336.848z"/>
						</g>
						<g>
							<path style="fill-rule:evenodd;clip-rule:evenodd;fill:#212121;" d="M181.508,336.848c-3.192,0-5.76-2.568-5.76-5.76V290.12
								c0-3.192,2.568-5.76,5.76-5.76c3.192,0,5.76,2.568,5.76,5.76v40.968C187.268,334.256,184.7,336.848,181.508,336.848z"/>
						</g>
					</g>
					<g>
						<g>
							<path style="fill-rule:evenodd;clip-rule:evenodd;fill:#212121;" d="M312.884,202.016c-12.504,0-22.68-10.176-22.68-22.68
								s10.176-22.68,22.68-22.68c12.504,0,22.68,10.176,22.68,22.68S325.388,202.016,312.884,202.016L312.884,202.016z
								 M312.884,168.176c-6.144,0-11.16,5.016-11.16,11.16c0,6.144,5.016,11.16,11.16,11.16c6.144,0,11.16-5.016,11.16-11.16
								C324.044,173.192,319.028,168.176,312.884,168.176z"/>
						</g>
						<g>
							<path style="fill-rule:evenodd;clip-rule:evenodd;fill:#212121;" d="M329.204,337.352h-31.896c-3.192,0-5.76-2.568-5.76-5.76
								c0-3.192,2.568-5.76,5.76-5.76h31.896c3.192,0,5.76,2.568,5.76,5.76C334.964,334.784,332.396,337.352,329.204,337.352z"/>
						</g>
						<g>
							<path style="fill-rule:evenodd;clip-rule:evenodd;fill:#212121;" d="M329.204,337.352c-0.12,0-0.24,0-0.336,0
								c-3.168-0.192-5.592-2.904-5.4-6.096l3.12-52.944l1.92-39.84c0.096-1.992,1.224-3.792,2.976-4.776
								c1.752-0.96,3.888-0.96,5.616,0.024l25.8,14.616c0.072,0.024,0.168-0.024,0.216-0.072l0.504-0.528
								c0.144-0.144,0.192-0.312,0.192-0.528c-0.024-0.192-0.12-0.36-0.288-0.48c-0.096-0.072-0.192-0.144-0.288-0.216
								l-35.784-28.008c-0.744-0.48-1.608-0.744-2.496-0.744L299.3,217.76c-0.936,0-1.848,0.288-2.616,0.816l-32.904,25.536
								c-0.048,0.048-0.096,0.072-0.168,0.12c-0.552,0.408-0.696,0.96-0.744,1.248c-0.048,0.288-0.024,0.864,0.408,1.392
								c0,0,0.024,0.024,0.048,0.024l26.328-13.296c1.752-0.888,3.816-0.816,5.496,0.168c1.68,0.984,2.76,2.76,2.856,4.704
								l1.92,39.84l3.12,52.944c0.192,3.168-2.232,5.904-5.4,6.096c-3.168,0.192-5.904-2.232-6.096-5.4l-3.12-52.968
								c0-0.024,0-0.048,0-0.072l-1.488-31.008l-18.552,9.36c-0.048,0.024-0.12,0.048-0.168,0.096
								c-4.752,2.208-10.416,0.912-13.752-3.12c-2.352-2.832-3.432-6.552-2.952-10.2c0.456-3.6,2.4-6.912,5.328-9.048l32.928-25.536
								c0.048-0.048,0.096-0.072,0.168-0.12c2.76-1.992,6.024-3.048,9.432-3.048l25.656-0.001c3.288,0,6.456,0.984,9.144,2.856
								c0.096,0.072,0.192,0.144,0.288,0.216l35.832,28.056c2.856,2.04,4.68,5.184,5.04,8.688c0.36,3.552-0.864,7.08-3.336,9.672
								l-0.504,0.528c-3.528,3.672-8.976,4.656-13.56,2.472c-0.12-0.048-0.24-0.12-0.36-0.192l-17.952-10.152l-1.464,30.528
								c0,0.024,0,0.048,0,0.072L335.035,332C334.772,334.976,332.228,337.352,329.204,337.352z"/>
						</g>
						<g>
							<path style="fill-rule:evenodd;clip-rule:evenodd;fill:#212121;" d="M313.244,337.352c-3.192,0-5.76-2.568-5.76-5.76v-40.968
								c0-3.192,2.568-5.76,5.76-5.76s5.76,2.568,5.76,5.76v40.968C319.004,334.76,316.436,337.352,313.244,337.352z"/>
						</g>
					</g>
				</g>
				<g>
					<g>
						<g>
							<path style="fill-rule:evenodd;clip-rule:evenodd;fill:#212121;" d="M407.012,220.736c-2.688,0-5.112-1.896-5.64-4.656
								c-3.504-17.88-10.056-34.896-19.464-50.568c-9.216-15.36-20.88-28.944-34.656-40.416
								c-13.896-11.568-29.496-20.568-46.392-26.784c-17.472-6.432-35.856-9.696-54.648-9.696s-37.2,3.264-54.671,9.696
								c-16.872,6.216-32.496,15.24-46.392,26.784c-13.8,11.472-25.464,25.08-34.656,40.416
								c-9.408,15.672-15.936,32.664-19.464,50.568c-0.624,3.12-3.648,5.16-6.768,4.536c-3.12-0.624-5.16-3.648-4.536-6.768
								c3.768-19.2,10.8-37.464,20.88-54.264c9.888-16.464,22.392-31.056,37.176-43.344c14.904-12.408,31.656-22.08,49.776-28.752
								c18.744-6.912,38.472-10.416,58.632-10.416s39.888,3.504,58.632,10.416c18.12,6.672,34.872,16.344,49.776,28.752
								c14.784,12.288,27.312,26.88,37.176,43.344c10.08,16.8,17.112,35.064,20.88,54.264c0.624,3.12-1.416,6.144-4.536,6.768
								C407.756,220.688,407.396,220.736,407.012,220.736z"/>
						</g>
						<g>
							<path style="fill-rule:evenodd;clip-rule:evenodd;fill:#212121;" d="M246.212,416.408c-20.16,0-39.888-3.504-58.632-10.416
								c-18.12-6.672-34.872-16.344-49.776-28.752c-14.784-12.288-27.312-26.88-37.176-43.344
								c-10.08-16.8-17.112-35.064-20.88-54.264c-0.624-3.12,1.416-6.144,4.536-6.768c3.12-0.6,6.144,1.416,6.768,4.536
								c3.504,17.88,10.056,34.896,19.464,50.568c9.216,15.36,20.88,28.944,34.656,40.416
								c13.896,11.568,29.496,20.568,46.392,26.784c17.472,6.432,35.856,9.696,54.648,9.696s37.176-3.264,54.648-9.696
								c16.872-6.216,32.496-15.24,46.392-26.784c13.8-11.472,25.464-25.08,34.656-40.416c9.408-15.672,15.936-32.664,19.464-50.568
								c0.624-3.12,3.648-5.16,6.768-4.536c3.12,0.624,5.16,3.648,4.536,6.768c-3.768,19.2-10.8,37.464-20.88,54.264
								c-9.888,16.464-22.392,31.056-37.176,43.344c-14.904,12.408-31.656,22.08-49.776,28.752
								C286.1,412.904,266.372,416.408,246.212,416.408z"/>
						</g>
					</g>
					<g>
						<path style="fill-rule:evenodd;clip-rule:evenodd;fill:#212121;" d="M85.484,256.304c-12.984,0-23.544-10.56-23.544-23.544
							s10.56-23.544,23.544-23.544s23.544,10.56,23.544,23.544S98.468,256.304,85.484,256.304L85.484,256.304z M85.484,220.736
							c-6.624,0-12.024,5.4-12.024,12.024c0,6.624,5.4,12.024,12.024,12.024s12.024-5.4,12.024-12.024
							C97.508,226.136,92.132,220.736,85.484,220.736z"/>
					</g>
					<g>
						<path style="fill-rule:evenodd;clip-rule:evenodd;fill:#212121;" d="M407.036,283.76c-12.984,0-23.544-10.56-23.544-23.544
							c0-12.984,10.56-23.544,23.544-23.544s23.544,10.56,23.544,23.544C430.58,273.2,420.02,283.76,407.036,283.76L407.036,283.76z
							 M407.036,248.192c-6.624,0-12.024,5.4-12.024,12.024c0,6.624,5.4,12.024,12.024,12.024c6.624,0,12.024-5.4,12.024-12.024
							C419.06,253.592,413.66,248.192,407.036,248.192z"/>
					</g>
				</g>
			</g>
		</g>
	</g>
</g>
</svg>
