<?xml version="1.0" encoding="utf-8"?>
<!-- Generator: Adobe Illustrator 16.0.0, SVG Export Plug-In . SVG Version: 6.00 Build 0)  -->
<!DOCTYPE svg PUBLIC "-//W3C//DTD SVG 1.1//EN" "http://www.w3.org/Graphics/SVG/1.1/DTD/svg11.dtd">
<svg version="1.1" xmlns="http://www.w3.org/2000/svg" xmlns:xlink="http://www.w3.org/1999/xlink" x="0px" y="0px" width="64px"
	 height="64px" viewBox="0 0 64 64" enable-background="new 0 0 64 64" xml:space="preserve">
<g id="_x35_0">
</g>
<g id="_x34_9">
</g>
<g id="_x34_8">
</g>
<g id="_x34_7">
</g>
<g id="_x34_6">
</g>
<g id="_x34_5">
</g>
<g id="_x34_4">
</g>
<g id="_x34_3">
	<g>
		<g>
			<path fill="#F6BB42" d="M39.02,9.505v1.59v1.41c0,3.17-2.11,5.85-5,6.71v-3v-0.01C36.909,15.354,39.02,12.675,39.02,9.505z"/>
		</g>
		<g>
			<path fill="#F6BB42" d="M34.02,16.215v3c-0.63,0.19-1.31,0.29-2,0.29c-0.7,0-1.37-0.1-2-0.29v-3v-0.01c0.63,0.2,1.3,0.3,2,0.3
				c0.69,0,1.37-0.1,2-0.3V16.215z"/>
		</g>
		<g>
			<path fill="#F6BB42" d="M25.02,9.505c0,3.17,2.1,5.85,5,6.7v0.01v3c-2.9-0.86-5-3.54-5-6.71h-0.01v-1.42v-1.58H25.02z"/>
		</g>
		<g>
			<path fill="#FFCE54" d="M39.02,9.505c0,3.17-2.11,5.85-5,6.7c-0.63,0.2-1.31,0.3-2,0.3c-0.7,0-1.37-0.1-2-0.3
				c-2.9-0.851-5-3.53-5-6.7c0-3.86,3.13-7,7-7C35.88,2.505,39.02,5.645,39.02,9.505z"/>
		</g>
		<g>
			<path fill="#CCD1D9" d="M18,28.495h-4v-1c0-1.101,0.899-2,2-2c1.109,0,2,0.899,2,2V28.495z"/>
		</g>
		<g>
			<path fill="#CCD1D9" d="M50,28.495h-4v-1c0-1.101,0.899-2,2-2c1.109,0,2,0.899,2,2V28.495z"/>
		</g>
		<g>
			<path fill="#E6E9ED" d="M47.8,61.485c-7.641-0.101-13.8-6.33-13.8-13.99c0-5.58,3.27-10.4,8-12.65v-6.35h4h4h4v6.35
				c4.729,2.24,8,7.07,8,12.65c0,7.729-6.271,14-14,14C47.93,61.495,47.859,61.495,47.8,61.485z M38,47.495c0,5.52,4.479,10,10,10
				c5.52,0,10-4.48,10-10c0-5.521-4.48-10-10-10C42.479,37.495,38,41.975,38,47.495z"/>
		</g>
		<g>
			<path fill="#E6E9ED" d="M16.199,61.485c-0.06,0.01-0.13,0.01-0.199,0.01c-7.73,0-14-6.271-14-14c0-5.58,3.27-10.41,8-12.65v-6.35
				h4h4h4v6.35c4.729,2.25,8,7.07,8,12.65C30,55.155,23.84,61.385,16.199,61.485z M16,57.495c5.52,0,10-4.48,10-10
				c0-5.521-4.48-10-10-10c-5.521,0-10,4.479-10,10C6,53.015,10.479,57.495,16,57.495z"/>
		</g>
	</g>
	<g>
		<g>
			<g>
				<g>
					<path d="M16,62.496c-8.271,0-15-6.729-15-15c0-5.762,3.364-11.083,8.571-13.556c0.499-0.235,1.096-0.023,1.332,0.475
						c0.237,0.499,0.024,1.095-0.475,1.332C5.916,37.891,3,42.502,3,47.496c0,7.168,5.832,13,13,13s13-5.832,13-13
						c0-4.992-2.915-9.604-7.427-11.749c-0.498-0.237-0.711-0.834-0.474-1.333c0.237-0.497,0.833-0.709,1.333-0.474
						C27.637,36.415,31,41.736,31,47.496C31,55.768,24.271,62.496,16,62.496z"/>
				</g>
				<g>
					<path d="M16,58.496c-6.065,0-11-4.935-11-11s4.935-11,11-11s11,4.935,11,11S22.065,58.496,16,58.496z M16,38.496
						c-4.963,0-9,4.037-9,9s4.037,9,9,9s9-4.037,9-9S20.963,38.496,16,38.496z"/>
				</g>
				<g>
					<path d="M15.998,62.496c-0.553,0-1-0.447-1-1s0.447-1,1-1c0.552,0,1-0.448,1-1s-0.448-1-1-1c-0.553,0-1-0.447-1-1s0.447-1,1-1
						c1.654,0,3,1.346,3,3S17.652,62.496,15.998,62.496z"/>
				</g>
				<g>
					<path d="M10,35.844c-0.553,0-1-0.447-1-1v-6.352c0-0.553,0.447-1,1-1s1,0.447,1,1v6.352C11,35.396,10.553,35.844,10,35.844z"/>
				</g>
				<g>
					<path d="M21.999,35.844c-0.553,0-1-0.447-1-1v-6.352c0-0.553,0.447-1,1-1s1,0.447,1,1v6.352
						C22.999,35.396,22.552,35.844,21.999,35.844z"/>
				</g>
				<g>
					<path d="M21.999,29.492H10c-0.553,0-1-0.447-1-1s0.447-1,1-1h11.999c0.553,0,1,0.447,1,1S22.552,29.492,21.999,29.492z"/>
				</g>
				<g>
					<path d="M18.03,33.492c-0.553,0-1.005-0.447-1.005-1s0.442-1,0.994-1h0.011c0.552,0,1,0.447,1,1S18.582,33.492,18.03,33.492z"
						/>
				</g>
			</g>
			<g>
				<g>
					<path d="M48,62.496c-8.271,0-15-6.729-15-15c0-5.76,3.363-11.081,8.567-13.556c0.5-0.235,1.096-0.023,1.333,0.474
						c0.237,0.499,0.024,1.096-0.474,1.333C37.915,37.892,35,42.504,35,47.496c0,7.168,5.832,13,13,13s13-5.832,13-13
						c0-4.994-2.916-9.605-7.429-11.749c-0.499-0.237-0.712-0.833-0.475-1.332c0.236-0.498,0.832-0.71,1.332-0.475
						C59.636,36.413,63,41.734,63,47.496C63,55.768,56.271,62.496,48,62.496z"/>
				</g>
				<g>
					<path d="M48,58.496c-6.065,0-11-4.935-11-11s4.935-11,11-11s11,4.935,11,11S54.065,58.496,48,58.496z M48,38.496
						c-4.963,0-9,4.037-9,9s4.037,9,9,9s9-4.037,9-9S52.963,38.496,48,38.496z"/>
				</g>
				<g>
					<path d="M48.002,62.496c-1.654,0-3-1.346-3-3s1.346-3,3-3c0.553,0,1,0.447,1,1s-0.447,1-1,1c-0.552,0-1,0.448-1,1s0.448,1,1,1
						c0.553,0,1,0.447,1,1S48.555,62.496,48.002,62.496z"/>
				</g>
				<g>
					<path d="M54,35.844c-0.553,0-1-0.447-1-1v-6.352c0-0.553,0.447-1,1-1s1,0.447,1,1v6.352C55,35.396,54.553,35.844,54,35.844z"/>
				</g>
				<g>
					<path d="M42.001,35.844c-0.553,0-1-0.447-1-1v-6.352c0-0.553,0.447-1,1-1s1,0.447,1,1v6.352
						C43.001,35.396,42.554,35.844,42.001,35.844z"/>
				</g>
				<g>
					<path d="M54,29.492H42.001c-0.553,0-1-0.447-1-1s0.447-1,1-1H54c0.553,0,1,0.447,1,1S54.553,29.492,54,29.492z"/>
				</g>
				<g>
					<path d="M46.03,33.492c-0.553,0-1.005-0.447-1.005-1s0.442-1,0.994-1h0.011c0.552,0,1,0.447,1,1S46.582,33.492,46.03,33.492z"
						/>
				</g>
			</g>
			<g>
				<path d="M18.002,28.496c-0.553,0-1-0.447-1-1c0-0.552-0.448-1-1-1s-1,0.448-1,1c0,0.553-0.447,1-1,1s-1-0.447-1-1
					c0-1.654,1.346-3,3-3s3,1.346,3,3C19.002,28.049,18.555,28.496,18.002,28.496z"/>
			</g>
			<g>
				<path d="M50.002,28.496c-0.553,0-1-0.447-1-1c0-0.552-0.448-1-1-1s-1,0.448-1,1c0,0.553-0.447,1-1,1s-1-0.447-1-1
					c0-1.654,1.346-3,3-3s3,1.346,3,3C51.002,28.049,50.555,28.496,50.002,28.496z"/>
			</g>
			<g>
				<path d="M48.004,26.484c-0.553,0-1-0.447-1-1c0-5.781-3.229-10.949-8.427-13.488c-0.497-0.242-0.702-0.841-0.46-1.337
					c0.242-0.497,0.845-0.703,1.337-0.46c5.891,2.877,9.55,8.734,9.55,15.285C49.004,26.037,48.557,26.484,48.004,26.484z"/>
			</g>
			<g>
				<path d="M16,26.484c-0.553,0-1-0.447-1-1c0-6.564,3.67-12.426,9.576-15.298c0.498-0.24,1.096-0.033,1.337,0.462
					c0.241,0.497,0.034,1.096-0.462,1.337C20.238,14.52,17,19.692,17,25.484C17,26.037,16.553,26.484,16,26.484z"/>
			</g>
			<g>
				<path d="M14.002,29.492c-0.553,0-1-0.447-1-1v-0.996c0-0.553,0.447-1,1-1s1,0.447,1,1v0.996
					C15.002,29.045,14.555,29.492,14.002,29.492z"/>
			</g>
			<g>
				<path d="M18.002,29.492c-0.553,0-1-0.447-1-1v-0.996c0-0.553,0.447-1,1-1s1,0.447,1,1v0.996
					C19.002,29.045,18.555,29.492,18.002,29.492z"/>
			</g>
			<g>
				<path d="M46.002,29.492c-0.553,0-1-0.447-1-1v-0.996c0-0.553,0.447-1,1-1s1,0.447,1,1v0.996
					C47.002,29.045,46.555,29.492,46.002,29.492z"/>
			</g>
			<g>
				<path d="M50.002,29.492c-0.553,0-1-0.447-1-1v-0.996c0-0.553,0.447-1,1-1s1,0.447,1,1v0.996
					C51.002,29.045,50.555,29.492,50.002,29.492z"/>
			</g>
		</g>
		<g>
			<path d="M32.016,17.504c-4.411,0-8-3.589-8-8s3.589-8,8-8s8,3.589,8,8S36.427,17.504,32.016,17.504z M32.016,3.504
				c-3.309,0-6,2.691-6,6s2.691,6,6,6s6-2.691,6-6S35.324,3.504,32.016,3.504z"/>
		</g>
		<g>
			<path d="M32.016,20.506c-4.411,0-7.999-3.589-7.999-8c0-0.553,0.447-1,1-1s1,0.447,1,1c0,3.309,2.691,6,5.999,6
				s5.999-2.691,5.999-6c0-0.553,0.447-1,1-1s1,0.447,1,1C40.015,16.917,36.427,20.506,32.016,20.506z"/>
		</g>
		<g>
			<path d="M25.014,13.506c-0.553,0-1-0.447-1-1v-3c0-0.553,0.447-1,1-1s1,0.447,1,1v3C26.014,13.059,25.566,13.506,25.014,13.506z"
				/>
		</g>
		<g>
			<path d="M39.018,13.506c-0.553,0-1-0.447-1-1v-3c0-0.553,0.447-1,1-1s1,0.447,1,1v3C40.018,13.059,39.57,13.506,39.018,13.506z"
				/>
		</g>
		<g>
			<path d="M32.016,12.504c-0.553,0-1-0.447-1-1v-4c0-0.553,0.447-1,1-1s1,0.447,1,1v4C33.016,12.057,32.568,12.504,32.016,12.504z"
				/>
		</g>
		<g>
			<path d="M29.016,19.832c-0.553,0-1-0.447-1-1V15.83c0-0.553,0.447-1,1-1s1,0.447,1,1v3.002
				C30.016,19.385,29.568,19.832,29.016,19.832z"/>
		</g>
		<g>
			<path d="M35.017,19.831c-0.553,0-1-0.447-1-1V15.83c0-0.553,0.447-1,1-1s1,0.447,1,1v3.001
				C36.017,19.384,35.569,19.831,35.017,19.831z"/>
		</g>
	</g>
</g>
<g id="_x34_2">
</g>
<g id="_x34_1">
</g>
<g id="_x34_0">
</g>
<g id="_x33_9">
</g>
<g id="_x33_8">
</g>
<g id="_x33_7">
</g>
<g id="_x33_6">
</g>
<g id="_x33_5">
</g>
<g id="_x33_4">
</g>
<g id="_x33_3">
</g>
<g id="_x33_2">
</g>
<g id="_x33_1">
</g>
<g id="_x33_0">
</g>
<g id="_x32_9">
</g>
<g id="_x32_8">
</g>
<g id="_x32_7">
</g>
<g id="_x32_6">
</g>
<g id="_x32_5">
</g>
<g id="_x32_4">
</g>
<g id="_x32_3">
</g>
<g id="_x32_2">
</g>
<g id="_x32_1">
</g>
<g id="_x32_0">
</g>
<g id="_x31_9">
</g>
<g id="_x31_8">
</g>
<g id="_x31_7">
</g>
<g id="_x31_6">
</g>
<g id="_x31_5">
</g>
<g id="_x31_4">
</g>
<g id="_x31_3">
</g>
<g id="_x31_2">
</g>
<g id="_x31_1">
</g>
<g id="_x31_0">
</g>
<g id="_x39_">
</g>
<g id="_x38_">
</g>
<g id="_x37_">
</g>
<g id="_x36_">
</g>
<g id="_x35_">
</g>
<g id="_x34_">
</g>
<g id="_x33_">
</g>
<g id="_x32_">
</g>
<g id="_x31_">
</g>
</svg>
